<svg width="180" height="180" viewBox="0 0 180 180" fill="none" xmlns="http://www.w3.org/2000/svg">
  <g clip-path="url(#clip0_236_1875)">
    <path
      d="M90 10C45.8172 10 10 45.8172 10 90C10 134.183 45.8172 170 90 170C134.183 170 170 134.183 170 90C170 45.8172 134.183 10 90 10ZM32 1L148 1C155.571 1 161.148 1.00212 165.423 1.57687C169.669 2.14775 172.48 3.26702 174.607 5.3934C176.733 7.51977 177.852 10.3308 178.423 14.5769C178.998 18.8518 179 24.4293 179 32L179 148C179 155.571 178.998 161.148 178.423 165.423C177.852 169.669 176.733 172.48 174.607 174.607C172.48 176.733 169.669 177.852 165.423 178.423C161.148 178.998 155.571 179 148 179L32 179C24.4293 179 18.8518 178.998 14.5769 178.423C10.3308 177.852 7.51977 176.733 5.3934 174.607C3.26702 172.48 2.14775 169.669 1.57687 165.423C1.00212 161.148 1 155.571 1 148L1 32C1 24.4293 1.00212 18.8518 1.57687 14.5769C2.14775 10.3308 3.26702 7.51977 5.3934 5.3934C7.51977 3.26702 10.3308 2.14775 14.5769 1.57687C18.8518 1.00212 24.4293 1 32 1Z"
      fill="#131314" />
    <path
      d="M90 10C45.8172 10 10 45.8172 10 90C10 134.183 45.8172 170 90 170C134.183 170 170 134.183 170 90C170 45.8172 134.183 10 90 10ZM32 1L148 1C155.571 1 161.148 1.00212 165.423 1.57687C169.669 2.14775 172.48 3.26702 174.607 5.3934C176.733 7.51977 177.852 10.3308 178.423 14.5769C178.998 18.8518 179 24.4293 179 32L179 148C179 155.571 178.998 161.148 178.423 165.423C177.852 169.669 176.733 172.48 174.607 174.607C172.48 176.733 169.669 177.852 165.423 178.423C161.148 178.998 155.571 179 148 179L32 179C24.4293 179 18.8518 178.998 14.5769 178.423C10.3308 177.852 7.51977 176.733 5.3934 174.607C3.26702 172.48 2.14775 169.669 1.57687 165.423C1.00212 161.148 1 155.571 1 148L1 32C1 24.4293 1.00212 18.8518 1.57687 14.5769C2.14775 10.3308 3.26702 7.51977 5.3934 5.3934C7.51977 3.26702 10.3308 2.14775 14.5769 1.57687C18.8518 1.00212 24.4293 1 32 1Z"
      stroke="url(#paint0_linear_236_1875)" stroke-width="2" />
    <path
      d="M90 10C45.8172 10 10 45.8172 10 90C10 134.183 45.8172 170 90 170C134.183 170 170 134.183 170 90C170 45.8172 134.183 10 90 10ZM32 1L148 1C155.571 1 161.148 1.00212 165.423 1.57687C169.669 2.14775 172.48 3.26702 174.607 5.3934C176.733 7.51977 177.852 10.3308 178.423 14.5769C178.998 18.8518 179 24.4293 179 32L179 148C179 155.571 178.998 161.148 178.423 165.423C177.852 169.669 176.733 172.48 174.607 174.607C172.48 176.733 169.669 177.852 165.423 178.423C161.148 178.998 155.571 179 148 179L32 179C24.4293 179 18.8518 178.998 14.5769 178.423C10.3308 177.852 7.51977 176.733 5.3934 174.607C3.26702 172.48 2.14775 169.669 1.57687 165.423C1.00212 161.148 1 155.571 1 148L1 32C1 24.4293 1.00212 18.8518 1.57687 14.5769C2.14775 10.3308 3.26702 7.51977 5.3934 5.3934C7.51977 3.26702 10.3308 2.14775 14.5769 1.57687C18.8518 1.00212 24.4293 1 32 1Z"
      stroke="black" stroke-opacity="0.2" stroke-width="2" />
    <path fill-rule="evenodd" clip-rule="evenodd"
      d="M13 90C13 132.526 47.4741 167 90 167C132.526 167 167 132.526 167 90C167 47.4741 132.526 13 90 13C47.4741 13 13 47.4741 13 90ZM90 11C46.3695 11 11 46.3695 11 90C11 133.63 46.3695 169 90 169C133.63 169 169 133.63 169 90C169 46.3695 133.63 11 90 11Z"
      fill="white" />
    <path fill-rule="evenodd" clip-rule="evenodd"
      d="M90 167C47.4741 167 13 132.526 13 90C13 47.4741 47.4741 13 90 13C132.526 13 167 47.4741 167 90C167 132.526 132.526 167 90 167ZM11 90C11 46.3695 46.3695 11 90 11C133.63 11 169 46.3695 169 90C169 133.63 133.63 169 90 169C46.3695 169 11 133.63 11 90Z"
      fill="white" />
    <path fill-rule="evenodd" clip-rule="evenodd"
      d="M7 7L173 7L173 173L7 173L7 7ZM90 11C46.3695 11 11 46.3695 11 90C11 133.63 46.3695 169 90 169C133.63 169 169 133.63 169 90C169 46.3695 133.63 11 90 11Z"
      fill="#131314" />
  </g>
  <defs>
    <linearGradient id="paint0_linear_236_1875" x1="90" y1="3.00036e-09" x2="90" y2="180"
      gradientUnits="userSpaceOnUse">
      <stop stop-color="#4CE965" />
      <stop offset="1" stop-color="#1A6722" />
    </linearGradient>
    <clipPath id="clip0_236_1875">
      <rect width="180" height="180" fill="white" />
    </clipPath>
  </defs>
</svg>