<svg viewBox="0 0 128 129" fill="none" xmlns="http://www.w3.org/2000/svg">
  <g filter="url(#filter0_d_5_1780)">
    <path
      d="M57.2739 117.412L9.06511 71.4151C5.31163 67.8339 5.31163 61.9397 9.06511 58.3585L57.2739 12.3619C61.0273 8.78068 67.2049 8.78068 70.9584 12.3619L119.167 58.3585C122.921 61.9397 122.921 67.8339 119.167 71.4151L70.9584 117.412C69.7614 118.554 68.3062 119.332 66.7614 119.745C64.6759 120.303 62.4291 120.198 60.4311 119.43C59.2665 118.983 58.1869 118.31 57.2739 117.412Z"
      fill="#39B44D" />
  </g>
  <path fill-rule="evenodd" clip-rule="evenodd"
    d="M96.2846 50.3894C93.1176 50.3894 90.498 52.8888 90.498 55.9104C90.498 58.3352 92.1792 60.4989 94.5643 61.2077V71.4664C94.5643 77.286 90.7326 80.4942 82.1309 81.7998L79.2767 82.2102C74.5848 83.0309 70.6358 84.4111 67.5079 86.3883V73.6753L67.547 72.9253V70.202C69.1892 68.8218 71.496 67.9638 74.663 67.5907H74.7021C80.1368 66.8073 82.9128 64.3452 82.9128 60.3536V54.3476C85.4152 53.7507 87.331 51.5871 87.331 48.9757C87.331 45.9168 84.7114 43.4173 81.5444 43.4173C78.3774 43.4173 75.7578 45.9168 75.7578 49.013C75.7578 51.6617 77.7518 53.8999 80.3323 54.4222V60.3909C80.3323 63.1515 78.5338 64.5691 74.3111 65.2032C71.5742 65.5017 69.3456 66.1732 67.5861 67.2177V46.8533C69.6975 45.6596 71.105 43.4959 71.105 41.0338C71.105 37.3033 67.938 34.2444 63.9891 34.2444C60.0792 34.2444 56.8731 37.266 56.8731 41.0338C56.8731 43.5332 58.2806 45.6969 60.392 46.8533V59.9887C58.7889 59.2426 56.8731 58.7203 54.6054 58.4592C49.327 57.7131 48.6624 55.5494 48.6624 53.7215V49.5061C51.2038 48.9465 53.1587 46.7456 53.1587 44.0969C53.1587 41.0753 50.5391 38.5759 47.3721 38.5759C44.2051 38.5759 41.5855 41.038 41.5855 44.0596C41.5855 46.7083 43.5404 48.8719 46.0818 49.4688V53.6842C46.0818 57.6758 48.8187 60.1006 54.2535 60.8467C56.8731 61.2197 58.8671 61.7793 60.392 62.7865V76.1706C56.7558 73.9696 52.1812 72.5147 46.4728 71.8433C37.6756 70.5749 33.7657 67.404 33.7657 61.4726V59.1224C36.0726 58.3763 37.7147 56.3245 37.7147 53.8624C37.7147 50.8408 35.0951 48.3414 31.9281 48.3414C28.7611 48.3414 26.1415 50.8408 26.1415 53.8624C26.1415 56.2872 27.7836 58.3763 30.0905 59.1224V61.4726C30.0905 65.7999 31.7717 69.1946 35.1342 71.5448C37.6756 73.3727 41.2336 74.5665 45.9645 75.238H46.0036C52.3376 76.0214 57.0295 77.7374 60.4311 80.4233V119.448C60.4311 119.448 61.9326 120.129 64.0477 120.129C66.1628 120.129 67.6643 119.459 67.6643 119.459V100.982L67.5861 97.9979V90.7529C70.6358 88.1789 74.7803 86.5002 80.2541 85.6049L82.9519 85.2318C87.4092 84.5231 90.8108 83.3293 93.274 81.576C96.6365 79.2258 98.3177 75.8311 98.3177 71.5037V61.2077C100.429 60.4243 102.032 58.3725 102.032 55.9477C102.032 54.4929 101.446 53.1126 100.39 52.0308C99.2952 50.9862 97.8486 50.3894 96.2846 50.3894ZM81.4662 45.5064C79.4722 45.5064 77.83 47.0732 77.83 49.013C77.83 50.8783 79.5113 52.4824 81.4662 52.4824C83.4602 52.4824 85.1024 50.9529 85.1024 49.013C85.1024 47.0732 83.4993 45.5064 81.4662 45.5064ZM43.6577 44.0596C43.6577 45.9622 45.2999 47.529 47.2939 47.529C49.2488 47.529 50.9301 45.9622 50.9301 44.0596C50.9301 42.1571 49.2879 40.5903 47.2939 40.5903C45.2999 40.5903 43.6577 42.1198 43.6577 44.0596ZM28.2137 53.7878C28.2137 55.7277 29.8559 57.2572 31.8499 57.2572C33.8048 57.2572 35.4861 55.6904 35.4861 53.7878C35.4861 51.8853 33.8439 50.3185 31.8499 50.3185C29.8559 50.3185 28.2137 51.848 28.2137 53.7878ZM58.9453 40.9592C58.9453 43.5705 61.174 45.6969 63.9109 45.6969C66.6478 45.6969 68.8764 43.5332 68.8764 40.9219C68.8764 38.3106 66.6478 36.1842 63.9109 36.1842C61.174 36.1842 58.9453 38.3106 58.9453 40.9592ZM92.6484 55.9477C92.6484 57.8503 94.2515 59.4171 96.2846 59.4171C98.2787 59.4171 99.9208 57.8503 99.9208 55.9104C99.9208 55.0151 99.608 54.1571 98.9042 53.4856C98.2005 52.8514 97.2621 52.4784 96.2846 52.4784C94.2906 52.4784 92.6484 54.0452 92.6484 55.9477Z"
    fill="#FAF8F9" />
  <defs>
    <filter id="filter0_d_5_1780" x="6.25" y="9.67599" width="118.732" height="113.422" filterUnits="userSpaceOnUse"
      color-interpolation-filters="sRGB">
      <feFlood flood-opacity="0" result="BackgroundImageFix" />
      <feColorMatrix in="SourceAlpha" type="matrix" values="0 0 0 0 0 0 0 0 0 0 0 0 0 0 0 0 0 0 127 0"
        result="hardAlpha" />
      <feOffset dx="3" dy="3" />
      <feComposite in2="hardAlpha" operator="out" />
      <feColorMatrix type="matrix" values="0 0 0 0 0.223529 0 0 0 0 0.705882 0 0 0 0 0.301961 0 0 0 0.75 0" />
      <feBlend mode="normal" in2="BackgroundImageFix" result="effect1_dropShadow_5_1780" />
      <feBlend mode="normal" in="SourceGraphic" in2="effect1_dropShadow_5_1780" result="shape" />
    </filter>
  </defs>
</svg>