<svg width="128" height="128" viewBox="0 0 128 128" fill="none" xmlns="http://www.w3.org/2000/svg">
  <g filter="url(#filter0_d_244_1658)">
    <path
      d="M56.9054 118.676L6.91892 70.9974C3.02703 67.2851 3.02703 61.1754 6.91892 57.4632L56.9054 9.78418C60.7973 6.07194 67.2027 6.07194 71.0946 9.78418L121.081 57.4632C124.973 61.1754 124.973 67.2851 121.081 70.9974L71.0946 118.676C69.8534 119.86 68.3446 120.667 66.7428 121.095C64.5804 121.674 62.2508 121.565 60.1791 120.769C58.9716 120.305 57.8521 119.607 56.9054 118.676Z"
      fill="#39B44D" />
  </g>
  <path fill-rule="evenodd" clip-rule="evenodd"
    d="M38.6048 45.322L48.1276 81.2629L49.2539 77.3718L50.6875 82.6964H26.6245L27.9557 77.3718L28.9796 81.2629L38.4 45.322H38.6048ZM38.4 67.7467V48.7011H38.6048L42.4958 64.3676L38.4 67.7467Z"
    fill="#F9F9F9" />
  <path
    d="M31.0274 55.4592C33.3142 55.7664 38.5432 57.1999 41.1645 60.4766C40.673 61.05 39.6627 62.2173 39.219 62.7293L49.4586 63.2412L48.537 54.3328L45.9771 56.2783C42.2226 54.2304 34.304 50.749 31.0274 55.4592Z"
    fill="#3598DB" fill-opacity="0.75" />
  <path
    d="M33.1777 57.1999C31.4028 56.449 28.0784 55.8483 28.9795 59.4526C29.5529 61.0909 31.2663 62.5245 32.0513 63.0365C30.925 61.8418 29.5734 59.0021 33.1777 57.1999Z"
    fill="#3598DB" fill-opacity="0.75" />
  <path
    d="M47.9228 75.8359C45.6359 75.5287 40.4069 74.0952 37.7856 70.8185C38.2771 70.2451 39.2874 69.0778 39.7311 68.5658L29.4916 68.0539L30.4131 76.9623L32.973 75.0168C36.7275 77.0647 44.6461 80.5461 47.9228 75.8359Z"
    fill="#27AE5F" fill-opacity="0.75" />
  <path
    d="M45.7724 74.0952C47.5473 74.8461 50.8717 75.4468 49.9707 71.8425C49.3973 70.2042 47.6838 68.7706 46.8988 68.2586C48.0252 69.4533 49.3768 72.293 45.7724 74.0952Z"
    fill="#27AE5F" fill-opacity="0.75" />
  <path
    d="M96.5041 53.148C96.8908 52.9231 97.2999 52.7523 97.7316 52.6354C98.1633 52.5095 98.6219 52.4465 99.1075 52.4465C99.4942 52.4465 99.8449 52.4915 100.16 52.5814C100.483 52.6713 100.758 52.8152 100.983 53.0131C101.216 53.2019 101.392 53.4492 101.509 53.755C101.635 54.0518 101.698 54.4115 101.698 54.8342V59.0159H100.308L100.146 58.3549H100.092C99.8854 58.6067 99.6201 58.8046 99.2964 58.9484C98.9816 59.0923 98.6129 59.1643 98.1902 59.1643C97.8395 59.1643 97.5293 59.1148 97.2595 59.0159C96.9897 58.908 96.7604 58.7686 96.5715 58.5977C96.3826 58.4179 96.2388 58.2065 96.1398 57.9637C96.0499 57.7209 96.0049 57.4601 96.0049 57.1813C96.0049 56.8126 96.0814 56.4979 96.2343 56.2371C96.3961 55.9673 96.6165 55.7469 96.8952 55.5761C97.174 55.4052 97.4978 55.2793 97.8665 55.1984C98.2442 55.1174 98.6489 55.077 99.0805 55.077H99.8899V54.6858C99.8899 54.389 99.7955 54.1732 99.6066 54.0383C99.4268 53.8944 99.1705 53.8224 98.8377 53.8224C98.5769 53.8224 98.3071 53.8629 98.0284 53.9438C97.7586 54.0248 97.4573 54.1552 97.1246 54.335L96.5041 53.148ZM99.9034 56.1966L99.3234 56.2101C98.7748 56.2281 98.3926 56.3225 98.1767 56.4934C97.9609 56.6552 97.853 56.8531 97.853 57.0869C97.853 57.3927 97.9429 57.604 98.1228 57.7209C98.3116 57.8288 98.523 57.8828 98.7568 57.8828C98.9906 57.8828 99.2109 57.8153 99.4178 57.6804C99.6336 57.5455 99.7955 57.3882 99.9034 57.2083V56.1966ZM99.4987 51.6237H98.2307L99.175 49.6137H100.969L99.4987 51.6237Z"
    fill="#F9F9F9" />
  <path
    d="M88.8724 54.7667C88.8724 54.416 88.9398 54.0967 89.0747 53.8089C89.2186 53.5212 89.412 53.2784 89.6548 53.0805C89.9066 52.8737 90.1989 52.7163 90.5316 52.6084C90.8733 52.5005 91.2465 52.4465 91.6512 52.4465C91.8041 52.4465 91.9705 52.46 92.1503 52.487C92.3302 52.505 92.4966 52.5364 92.6494 52.5814H95.4013V53.7145H94.8213L93.9849 53.5931C94.1018 53.737 94.1962 53.9169 94.2682 54.1327C94.3491 54.3485 94.3896 54.5644 94.3896 54.7802C94.3896 55.4637 94.1423 56.0167 93.6477 56.4394C93.162 56.8531 92.4921 57.0599 91.6377 57.0599C91.4129 57.0599 91.2151 57.0419 91.0442 57.006C90.8194 57.0959 90.707 57.2443 90.707 57.4511C90.707 57.595 90.7564 57.7029 90.8553 57.7749C90.9543 57.8468 91.1296 57.8828 91.3814 57.8828H92.8248C93.5353 57.8828 94.1018 58.0401 94.5245 58.3549C94.9561 58.6607 95.172 59.1553 95.172 59.8387C95.172 60.1895 95.0865 60.5087 94.9157 60.7965C94.7538 61.0933 94.52 61.3451 94.2142 61.5519C93.9085 61.7677 93.5398 61.9341 93.1081 62.051C92.6764 62.1679 92.1953 62.2264 91.6647 62.2264C90.6845 62.2264 89.9066 62.051 89.331 61.7003C88.7645 61.3586 88.4812 60.8639 88.4812 60.2164C88.4812 59.9197 88.5801 59.6589 88.778 59.4341C88.9758 59.2182 89.2501 59.0474 89.6008 58.9215C89.4749 58.8315 89.349 58.7056 89.2231 58.5438C89.0972 58.3729 89.0343 58.1616 89.0343 57.9097C89.0343 57.613 89.1242 57.3567 89.3041 57.1408C89.4839 56.925 89.7132 56.7541 89.992 56.6282C89.8571 56.5563 89.7222 56.4664 89.5873 56.3585C89.4614 56.2415 89.3445 56.1067 89.2366 55.9538C89.1287 55.8009 89.0388 55.6255 88.9668 55.4277C88.9039 55.2298 88.8724 55.0095 88.8724 54.7667ZM90.599 59.2317C90.4642 59.3037 90.3517 59.3981 90.2618 59.515C90.1719 59.6319 90.1269 59.7803 90.1269 59.9601C90.1269 60.2209 90.2438 60.4368 90.4776 60.6076C90.7205 60.7875 91.1341 60.8774 91.7187 60.8774C92.3032 60.8774 92.7304 60.7785 93.0002 60.5807C93.27 60.3828 93.4049 60.158 93.4049 59.9062C93.4049 59.6544 93.3194 59.479 93.1486 59.3801C92.9777 59.2812 92.7124 59.2317 92.3527 59.2317H90.599ZM92.636 54.7532C92.636 54.4025 92.5415 54.1372 92.3527 53.9573C92.1638 53.7775 91.9255 53.6875 91.6377 53.6875C91.341 53.6875 91.0982 53.7775 90.9093 53.9573C90.7294 54.1372 90.6395 54.398 90.6395 54.7397C90.6395 55.0994 90.7339 55.3692 90.9228 55.5491C91.1116 55.7289 91.35 55.8189 91.6377 55.8189C91.9345 55.8189 92.1728 55.7289 92.3527 55.5491C92.5415 55.3692 92.636 55.1039 92.636 54.7532Z"
    fill="#F9F9F9" />
  <path
    d="M83.1857 59.0159H81.3916V52.5814H82.7945L83.0103 53.4043C83.3071 53.0985 83.6309 52.8647 83.9816 52.7028C84.3413 52.5319 84.737 52.4465 85.1687 52.4465C85.8791 52.4465 86.4232 52.6399 86.8009 53.0266C87.1786 53.4133 87.3674 53.9753 87.3674 54.7127V59.0159H85.5733V54.9016C85.5733 54.5689 85.4924 54.3081 85.3305 54.1192C85.1687 53.9214 84.9303 53.8224 84.6156 53.8224C84.3818 53.8224 84.1345 53.8899 83.8737 54.0248C83.6219 54.1507 83.3925 54.326 83.1857 54.5509V59.0159Z"
    fill="#F9F9F9" />
  <path
    d="M77.812 59.0159V52.5814H79.6061V59.0159H77.812ZM78.7157 51.2055C78.41 51.2055 78.1717 51.12 78.0008 50.9492C77.8299 50.7693 77.7445 50.549 77.7445 50.2882C77.7445 50.0274 77.8299 49.8116 78.0008 49.6407C78.1717 49.4608 78.41 49.3709 78.7157 49.3709C79.0125 49.3709 79.2463 49.4608 79.4172 49.6407C79.5971 49.8116 79.687 50.0274 79.687 50.2882C79.687 50.549 79.6016 50.7693 79.4307 50.9492C79.2598 51.12 79.0215 51.2055 78.7157 51.2055Z"
    fill="#F9F9F9" />
  <path
    d="M72.4735 59.0159V52.5814H73.8629L74.0653 53.7415C74.2182 53.3998 74.461 53.0985 74.7937 52.8377C75.1264 52.5769 75.5446 52.4465 76.0482 52.4465C76.2551 52.4465 76.4394 52.469 76.6013 52.514C76.7632 52.5589 76.8981 52.6129 77.006 52.6758L76.7092 54.0922C76.6103 54.0383 76.4844 53.9933 76.3315 53.9573C76.1786 53.9124 75.9988 53.8899 75.7919 53.8899C75.3513 53.8899 74.9826 54.0383 74.6858 54.335C74.398 54.6228 74.2541 55.0994 74.2541 55.7649V59.0159H72.4735Z"
    fill="#F9F9F9" />
  <path
    d="M65.7575 53.148C66.1442 52.9231 66.5534 52.7523 66.985 52.6354C67.4167 52.5095 67.8753 52.4465 68.3609 52.4465C68.7476 52.4465 69.0984 52.4915 69.4131 52.5814C69.7369 52.6713 70.0112 52.8152 70.236 53.0131C70.4698 53.2019 70.6452 53.4492 70.7621 53.755C70.888 54.0518 70.9509 54.4115 70.9509 54.8341V59.0159H69.5615L69.3996 58.3549H69.3457C69.1388 58.6067 68.8735 58.8045 68.5498 58.9484C68.235 59.0923 67.8663 59.1643 67.4437 59.1643C67.0929 59.1643 66.7827 59.1148 66.5129 59.0159C66.2431 58.908 66.0138 58.7686 65.8249 58.5977C65.6361 58.4179 65.4922 58.2065 65.3933 57.9637C65.3033 57.7209 65.2584 57.4601 65.2584 57.1813C65.2584 56.8126 65.3348 56.4978 65.4877 56.2371C65.6496 55.9673 65.8699 55.7469 66.1487 55.5761C66.4274 55.4052 66.7512 55.2793 67.1199 55.1984C67.4976 55.1174 67.9023 55.077 68.334 55.077H69.1433V54.6858C69.1433 54.389 69.0489 54.1732 68.8601 54.0383C68.6802 53.8944 68.4239 53.8224 68.0912 53.8224C67.8304 53.8224 67.5606 53.8629 67.2818 53.9438C67.012 54.0248 66.7107 54.1552 66.378 54.335L65.7575 53.148ZM69.1568 56.1966L68.5768 56.2101C68.0282 56.2281 67.646 56.3225 67.4302 56.4934C67.2143 56.6552 67.1064 56.8531 67.1064 57.0869C67.1064 57.3927 67.1963 57.604 67.3762 57.7209C67.5651 57.8288 67.7764 57.8828 68.0102 57.8828C68.244 57.8828 68.4644 57.8153 68.6712 57.6804C68.887 57.5455 69.0489 57.3882 69.1568 57.2083V56.1966Z"
    fill="#F9F9F9" />
  <path
    d="M55.0736 50.5175H57.4073L58.6214 54.389C58.6753 54.5599 58.7293 54.7442 58.7832 54.9421C58.8462 55.1399 58.9047 55.3378 58.9586 55.5356C59.0126 55.7334 59.062 55.9268 59.107 56.1157C59.152 56.3045 59.1879 56.4799 59.2149 56.6417H59.2689C59.2958 56.4979 59.3318 56.3315 59.3768 56.1426C59.4217 55.9448 59.4712 55.7424 59.5252 55.5356C59.5791 55.3288 59.6331 55.1264 59.687 54.9286C59.741 54.7307 59.7905 54.5509 59.8354 54.389L61.009 50.5175H63.3427L63.9767 59.0159H62.2366C62.1826 58.0806 62.1286 57.1453 62.0747 56.2101C62.0207 55.2748 61.9847 54.3305 61.9668 53.3773L61.9533 52.2711H61.9128C61.7959 52.7658 61.6655 53.2829 61.5216 53.8224C61.3867 54.362 61.2563 54.8341 61.1304 55.2388L59.9299 59.0159H58.5L57.2724 55.2253C57.1195 54.7397 56.9757 54.2271 56.8408 53.6875C56.7059 53.148 56.598 52.6758 56.517 52.2711H56.4765C56.4765 52.5949 56.472 52.9366 56.4631 53.2963C56.4541 53.6471 56.4406 53.9978 56.4226 54.3485C56.4136 54.6993 56.4001 55.0455 56.3821 55.3872C56.3731 55.72 56.3596 56.0257 56.3417 56.3045L56.1798 59.0159H54.4666L55.0736 50.5175Z"
    fill="#F9F9F9" />
  <path
    d="M82.5393 69.8786H78.4575V69.9301C78.4575 70.4194 78.6292 70.7842 78.9726 71.0246C79.316 71.2649 79.7581 71.3851 80.2989 71.3851C80.6422 71.3851 80.9427 71.3508 81.2002 71.2821C81.4663 71.2134 81.7067 71.1319 81.9213 71.0375L82.2303 72.235C81.9985 72.3466 81.7067 72.441 81.3547 72.5182C81.0028 72.6041 80.5864 72.647 80.1057 72.647C79.6422 72.647 79.2044 72.5869 78.7923 72.4667C78.3889 72.338 78.0326 72.1448 77.7236 71.8873C77.4231 71.6298 77.1828 71.3036 77.0025 70.9087C76.8223 70.5138 76.7321 70.0417 76.7321 69.4923C76.7321 69.003 76.8051 68.5609 76.951 68.166C77.0969 67.7626 77.303 67.4192 77.5691 67.1359C77.8438 66.8527 78.17 66.6338 78.5477 66.4792C78.9254 66.3161 79.346 66.2346 79.8096 66.2346C80.6422 66.2346 81.3032 66.4878 81.7925 66.9943C82.2904 67.5008 82.5393 68.209 82.5393 69.1189V69.8786ZM80.7882 68.7068C80.7882 68.5437 80.7667 68.3849 80.7238 68.2304C80.6894 68.0759 80.6293 67.9429 80.5435 67.8313C80.4577 67.7111 80.3504 67.6167 80.2216 67.548C80.0928 67.4793 79.934 67.445 79.7452 67.445C79.4018 67.445 79.1185 67.5609 78.8953 67.7926C78.6721 68.0244 78.5391 68.3377 78.4962 68.7326L80.7882 68.7068Z"
    fill="#F9F9F9" />
  <path d="M73.7863 72.5054V63.3117H75.4731V72.5054H73.7863Z" fill="#F9F9F9" />
  <path
    d="M70.3177 72.5054V66.3634H72.0303V72.5054H70.3177ZM71.1805 65.05C70.8886 65.05 70.6611 64.9684 70.498 64.8053C70.3349 64.6336 70.2534 64.4233 70.2534 64.1744C70.2534 63.9255 70.3349 63.7194 70.498 63.5563C70.6611 63.3846 70.8886 63.2988 71.1805 63.2988C71.4637 63.2988 71.6869 63.3846 71.85 63.5563C72.0217 63.7194 72.1075 63.9255 72.1075 64.1744C72.1075 64.4233 72.026 64.6336 71.8629 64.8053C71.6998 64.9684 71.4723 65.05 71.1805 65.05Z"
    fill="#F9F9F9" />
  <path
    d="M62.8058 68.4493C62.8058 68.1145 62.8702 67.8098 62.9989 67.5351C63.1363 67.2604 63.3208 67.0286 63.5526 66.8398C63.793 66.6423 64.072 66.4921 64.3896 66.3891C64.7158 66.2861 65.072 66.2346 65.4583 66.2346C65.6042 66.2346 65.763 66.2475 65.9347 66.2732C66.1064 66.2904 66.2652 66.3204 66.4112 66.3634H69.0379V67.445H68.4842L67.6859 67.3291C67.7975 67.4664 67.8876 67.6381 67.9563 67.8441C68.0336 68.0502 68.0722 68.2562 68.0722 68.4622C68.0722 69.1146 67.8361 69.6425 67.364 70.046C66.9005 70.4409 66.2609 70.6383 65.4454 70.6383C65.2308 70.6383 65.042 70.6211 64.8789 70.5868C64.6643 70.6726 64.557 70.8143 64.557 71.0117C64.557 71.1491 64.6042 71.2521 64.6986 71.3207C64.793 71.3894 64.9604 71.4238 65.2008 71.4238H66.5785C67.2567 71.4238 67.7975 71.574 68.201 71.8744C68.613 72.1663 68.819 72.6384 68.819 73.2908C68.819 73.6256 68.7375 73.9303 68.5744 74.205C68.4199 74.4883 68.1967 74.7287 67.9048 74.9261C67.6129 75.1321 67.261 75.2909 66.8489 75.4025C66.4369 75.5141 65.9777 75.5699 65.4712 75.5699C64.5355 75.5699 63.793 75.4025 63.2436 75.0678C62.7028 74.7416 62.4324 74.2694 62.4324 73.6514C62.4324 73.3681 62.5268 73.1191 62.7157 72.9045C62.9045 72.6985 63.1663 72.5354 63.5011 72.4152C63.3809 72.3294 63.2607 72.2092 63.1406 72.0547C63.0204 71.8916 62.9603 71.6899 62.9603 71.4495C62.9603 71.1662 63.0461 70.9216 63.2178 70.7156C63.3895 70.5095 63.6084 70.3464 63.8745 70.2263C63.7458 70.1576 63.617 70.0717 63.4882 69.9687C63.3681 69.8571 63.2565 69.7284 63.1534 69.5824C63.0504 69.4365 62.9646 69.2691 62.8959 69.0803C62.8358 68.8914 62.8058 68.6811 62.8058 68.4493ZM64.454 72.7114C64.3252 72.7801 64.2179 72.8702 64.132 72.9818C64.0462 73.0934 64.0033 73.235 64.0033 73.4067C64.0033 73.6556 64.1149 73.8617 64.3381 74.0248C64.5698 74.1965 64.9647 74.2823 65.5227 74.2823C66.0807 74.2823 66.4884 74.1879 66.7459 73.999C67.0035 73.8102 67.1322 73.5956 67.1322 73.3552C67.1322 73.1148 67.0507 72.9474 66.8876 72.853C66.7245 72.7586 66.4712 72.7114 66.1279 72.7114H64.454ZM66.3983 68.4364C66.3983 68.1017 66.3081 67.8484 66.1279 67.6767C65.9476 67.5051 65.7201 67.4192 65.4454 67.4192C65.1622 67.4192 64.9304 67.5051 64.7501 67.6767C64.5784 67.8484 64.4926 68.0974 64.4926 68.4236C64.4926 68.7669 64.5827 69.0245 64.763 69.1961C64.9433 69.3678 65.1707 69.4537 65.4454 69.4537C65.7287 69.4537 65.9562 69.3678 66.1279 69.1961C66.3081 69.0245 66.3983 68.7712 66.3983 68.4364Z"
    fill="#F9F9F9" />
  <path
    d="M57.0384 69.3378H59.0986L58.7251 68.2562C58.605 67.9214 58.4934 67.5866 58.3904 67.2518C58.2874 66.9085 58.1886 66.5651 58.0942 66.2217H58.0685C57.974 66.5479 57.871 66.8827 57.7594 67.2261C57.6478 67.5609 57.5319 67.9042 57.4118 68.2562L57.0384 69.3378ZM57.1929 64.3933H59.0213L62.0215 72.5054H60.1544L59.5235 70.6383H56.6392L56.0082 72.5054H54.1669L57.1929 64.3933Z"
    fill="#F9F9F9" />
  <path
    d="M72.1288 79.7182C72.0102 79.7182 71.8957 79.7024 71.785 79.6708C71.6744 79.6391 71.5795 79.5957 71.5005 79.5404V81.0222H70.8959V76.8257H71.3879L71.4649 77.1754C71.5756 77.0727 71.7001 76.9877 71.8384 76.9205C71.9767 76.8494 72.1367 76.8138 72.3185 76.8138C72.6899 76.8138 72.9823 76.9344 73.1957 77.1754C73.4091 77.4164 73.5158 77.7582 73.5158 78.2008C73.5158 78.4577 73.4762 78.6829 73.3972 78.8765C73.3221 79.0662 73.2194 79.2242 73.089 79.3507C72.9626 79.4732 72.8144 79.566 72.6445 79.6293C72.4785 79.6885 72.3066 79.7182 72.1288 79.7182ZM72.1703 77.2939C72.0201 77.2939 71.8858 77.3315 71.7672 77.4066C71.6526 77.4777 71.5637 77.5528 71.5005 77.6318V79.0721C71.6625 79.1946 71.8463 79.2559 72.0517 79.2559C72.1545 79.2559 72.2552 79.2381 72.354 79.2025C72.4528 79.1669 72.5417 79.1077 72.6207 79.0247C72.6998 78.9417 72.763 78.835 72.8104 78.7046C72.8578 78.5703 72.8815 78.4083 72.8815 78.2186C72.8815 77.938 72.8223 77.7148 72.7037 77.5488C72.5891 77.3789 72.4113 77.2939 72.1703 77.2939Z"
    fill="#F9F9F9" />
  <path
    d="M69.5332 76.8613H70.1437V79.6589H69.6754L69.5984 79.321H69.5747C69.4759 79.4238 69.3514 79.5166 69.2013 79.5996C69.0511 79.6786 68.8693 79.7182 68.656 79.7182C68.3596 79.7182 68.1225 79.6352 67.9447 79.4692C67.7669 79.3033 67.678 79.0543 67.678 78.7224V76.8613H68.2885V78.6572C68.2885 78.8745 68.3379 79.0267 68.4367 79.1136C68.5394 79.2005 68.6619 79.244 68.8041 79.244C68.9583 79.244 69.0946 79.2124 69.2131 79.1492C69.3317 79.082 69.4384 78.995 69.5332 78.8884V76.8613Z"
    fill="#F9F9F9" />
  <path
    d="M67.0252 77.3117H66.231V78.8232C66.231 78.9615 66.2626 79.0543 66.3258 79.1017C66.393 79.1492 66.4819 79.1729 66.5925 79.1729C66.6716 79.1729 66.7545 79.165 66.8415 79.1492C66.9324 79.1294 67.0114 79.1077 67.0786 79.084L67.1734 79.5344C67.0944 79.566 66.9916 79.5957 66.8652 79.6233C66.7427 79.647 66.6123 79.6589 66.474 79.6589C66.1737 79.6589 65.9564 79.5976 65.822 79.4751C65.6916 79.3487 65.6264 79.163 65.6264 78.918V77.3117H65.1996V76.8613H65.6264V75.9781H66.231V76.8613H67.0252V77.3117Z"
    fill="#F9F9F9" />
  <path
    d="M64.8927 78.3668H62.9308V78.3905C62.9308 78.675 63.0138 78.8903 63.1797 79.0365C63.3457 79.1827 63.565 79.2559 63.8376 79.2559C63.9878 79.2559 64.1221 79.244 64.2407 79.2203C64.3632 79.1926 64.4857 79.1511 64.6082 79.0958L64.7267 79.5404C64.6121 79.5917 64.4758 79.6332 64.3177 79.6648C64.1597 79.7004 63.9858 79.7182 63.7961 79.7182C63.5946 79.7182 63.403 79.6905 63.2212 79.6352C63.0394 79.5799 62.8794 79.4929 62.7411 79.3744C62.6068 79.2559 62.5001 79.1057 62.421 78.9239C62.342 78.7422 62.3025 78.5248 62.3025 78.2719C62.3025 78.0546 62.3341 77.857 62.3973 77.6792C62.4645 77.4974 62.5574 77.3433 62.6759 77.2169C62.7984 77.0865 62.9446 76.9877 63.1145 76.9205C63.2884 76.8494 63.48 76.8138 63.6895 76.8138C63.8712 76.8138 64.0352 76.8435 64.1814 76.9028C64.3316 76.962 64.458 77.047 64.5608 77.1576C64.6674 77.2643 64.7484 77.3967 64.8038 77.5547C64.863 77.7089 64.8927 77.8807 64.8927 78.0704V78.3668ZM64.2644 77.94C64.2644 77.8452 64.2525 77.7563 64.2288 77.6733C64.2051 77.5903 64.1696 77.5192 64.1221 77.4599C64.0747 77.3967 64.0115 77.3473 63.9325 77.3117C63.8574 77.2722 63.7665 77.2525 63.6598 77.2525C63.4622 77.2525 63.3002 77.3157 63.1738 77.4421C63.0513 77.5686 62.9762 77.7385 62.9486 77.9519L64.2644 77.94Z"
    fill="#F9F9F9" />
  <path
    d="M61.8772 78.3668H59.9153V78.3905C59.9153 78.675 59.9983 78.8903 60.1642 79.0365C60.3302 79.1827 60.5495 79.2559 60.8221 79.2559C60.9723 79.2559 61.1066 79.244 61.2252 79.2203C61.3477 79.1926 61.4702 79.1511 61.5927 79.0958L61.7112 79.5404C61.5966 79.5917 61.4603 79.6332 61.3022 79.6648C61.1442 79.7004 60.9703 79.7182 60.7806 79.7182C60.5791 79.7182 60.3875 79.6905 60.2057 79.6352C60.0239 79.5799 59.8639 79.4929 59.7256 79.3744C59.5912 79.2559 59.4846 79.1057 59.4055 78.9239C59.3265 78.7422 59.287 78.5248 59.287 78.2719C59.287 78.0546 59.3186 77.857 59.3818 77.6792C59.449 77.4974 59.5419 77.3433 59.6604 77.2169C59.7829 77.0865 59.9291 76.9877 60.099 76.9205C60.2729 76.8494 60.4645 76.8138 60.674 76.8138C60.8557 76.8138 61.0197 76.8435 61.1659 76.9028C61.3161 76.962 61.4425 77.047 61.5452 77.1576C61.6519 77.2643 61.7329 77.3967 61.7883 77.5547C61.8475 77.7089 61.8772 77.8807 61.8772 78.0704V78.3668ZM61.2489 77.94C61.2489 77.8452 61.237 77.7563 61.2133 77.6733C61.1896 77.5903 61.1541 77.5192 61.1066 77.4599C61.0592 77.3967 60.996 77.3473 60.917 77.3117C60.8419 77.2722 60.751 77.2525 60.6443 77.2525C60.4467 77.2525 60.2847 77.3157 60.1583 77.4421C60.0358 77.5686 59.9607 77.7385 59.9331 77.9519L61.2489 77.94Z"
    fill="#F9F9F9" />
  <path
    d="M54.8927 75.9248H55.7106L56.3685 77.94C56.4239 78.1099 56.4713 78.264 56.5108 78.4023C56.5543 78.5367 56.5977 78.6888 56.6412 78.8587H56.659C56.7024 78.7165 56.7459 78.5643 56.7894 78.4023C56.8368 78.2403 56.8822 78.0862 56.9257 77.94L57.5599 75.9248H58.3779L58.6861 79.6589H58.0696C58.038 79.2637 58.0064 78.8666 57.9748 78.4675C57.9472 78.0645 57.9254 77.6614 57.9096 77.2584L57.8859 76.5767H57.8741C57.8069 76.8217 57.7358 77.0707 57.6607 77.3236C57.5895 77.5765 57.5145 77.8195 57.4354 78.0526L56.9079 79.6589H56.3685L55.8351 78.0467C55.7798 77.8768 55.7304 77.7227 55.6869 77.5844C55.6474 77.4461 55.6099 77.3196 55.5743 77.205C55.5427 77.0865 55.5131 76.9758 55.4854 76.8731C55.4577 76.7704 55.432 76.6716 55.4083 76.5767H55.3906C55.3787 76.9126 55.3609 77.2544 55.3372 77.6021C55.3135 77.9499 55.2918 78.2838 55.272 78.6038L55.2009 79.6589H54.5963L54.8927 75.9248Z"
    fill="#F9F9F9" />
  <defs>
    <filter id="filter0_d_244_1658" x="4" y="7" width="122" height="116.46" filterUnits="userSpaceOnUse"
      color-interpolation-filters="sRGB">
      <feFlood flood-opacity="0" result="BackgroundImageFix" />
      <feColorMatrix in="SourceAlpha" type="matrix" values="0 0 0 0 0 0 0 0 0 0 0 0 0 0 0 0 0 0 127 0"
        result="hardAlpha" />
      <feOffset dx="2" dy="2" />
      <feComposite in2="hardAlpha" operator="out" />
      <feColorMatrix type="matrix" values="0 0 0 0 0 0 0 0 0 0.42 0 0 0 0 0.196 0 0 0 1 0" />
      <feBlend mode="normal" in2="BackgroundImageFix" result="effect1_dropShadow_244_1658" />
      <feBlend mode="normal" in="SourceGraphic" in2="effect1_dropShadow_244_1658" result="shape" />
    </filter>
  </defs>
</svg>