<svg width="180" height="180" viewBox="0 0 180 180" fill="none" xmlns="http://www.w3.org/2000/svg">
<g filter="url(#filter0_d_246_1709)">
<path d="M82.4324 151.412L29.1135 97.8686C24.9622 93.6998 24.9622 86.8386 29.1135 82.6698L82.4324 29.1266C86.5838 24.9578 93.4162 24.9578 97.5676 29.1266L150.886 82.6698C155.038 86.8386 155.038 93.6998 150.886 97.8686L97.5676 151.412C95.6154 153.372 92.5845 153.985 89.7961 154C87.203 154.014 84.2216 153.208 82.4324 151.412Z" fill="#4CAF50"/>
</g>
<g filter="url(#filter1_d_246_1709)">
<path fill-rule="evenodd" clip-rule="evenodd" d="M97.3356 61.5267L97.8012 62.2214L98.2665 61.5265C99.6453 59.4673 101.788 58 104.817 58C109.522 58 112.158 61.5784 112.986 65.4599L113.012 65.5816V69.3038L113.241 69.4717C120.73 74.9741 125.593 82.0779 125.593 91.828C125.593 102.735 120.109 110.784 112.249 115.797C108.027 118.49 103.125 120.306 98.0145 121.246C93.2759 122.117 88.3409 122.236 83.5754 121.59C78.1282 120.85 72.8782 119.106 68.3908 116.312C65.1316 114.283 62.2714 111.698 60.0387 108.543C56.8715 104.067 55 98.4896 55 91.828C55 81.944 60.5317 74.583 68.0054 69.0747L68.2332 68.9068V65.5816L68.2592 65.4599C68.6864 63.4561 69.5614 61.596 70.9559 60.2236C72.3703 58.8316 74.2629 58 76.5737 58C78.8844 58 80.777 58.8316 82.1914 60.2236C82.5943 60.6201 82.9538 61.0572 83.2717 61.5268L83.7378 62.2155L84.201 61.5248C85.5833 59.4635 87.7326 58 90.7677 58C93.8036 58 95.9533 59.4644 97.3356 61.5267ZM76.6106 85.9529L76.5381 86.0254H70.5932V67.3935H82.5541V85.9529H76.6106ZM103.725 85.9529C103.659 85.9524 103.593 85.9524 103.527 85.9529L103.523 85.9529L98.9812 85.9529V67.3935H110.652V85.9529H103.725ZM99.1535 65.0335L99.4653 64.2631C100.421 61.9007 102.248 60.36 104.817 60.36C107.385 60.36 109.212 61.9007 110.168 64.2631L110.48 65.0335H99.1535ZM85.0863 65.0335L85.3982 64.2631C86.3564 61.8956 88.1887 60.36 90.7677 60.36C93.3467 60.36 95.1789 61.8956 96.1371 64.2631L96.449 65.0335H85.0863ZM70.7662 65.0335L71.0822 64.2611C71.4634 63.3293 71.9781 62.5289 72.6113 61.9057C73.5786 60.9537 74.8743 60.36 76.5737 60.36C78.273 60.36 79.5687 60.9537 80.536 61.9057C81.1693 62.5289 81.6839 63.3293 82.0651 64.2611L82.3811 65.0335H70.7662ZM68.2332 86.1398L67.8053 86.2439C63.2111 87.361 59.822 90.9876 59.822 96.088V100.58L58.7298 100.756C57.8453 98.0799 57.36 95.1071 57.36 91.828C57.36 83.867 61.3329 77.6105 67.3138 72.6137L68.2332 71.8455V86.1398ZM62.2314 94.908L62.3921 94.2203C63.12 91.1055 65.66 88.9682 69.0613 88.3933L69.1076 88.3854H70.2493L69.6248 89.269C68.6199 90.6911 68.0943 92.4611 67.9109 94.4005L67.8629 94.908H62.2314ZM77.5156 88.3854L77.5881 88.3129H82.5541V94.908H70.221L70.2969 94.2805C70.4959 92.6355 70.985 91.3122 71.7599 90.3567C72.6806 89.2212 74.1377 88.4436 76.4497 88.3856L76.4567 88.3854H77.5156ZM103.725 88.3129C106.22 88.333 107.813 89.1407 108.815 90.3572C109.608 91.3186 110.117 92.6394 110.326 94.2768L110.406 94.908H98.9812V88.3129H103.725ZM112.764 94.908L112.714 94.4028C112.519 92.429 111.958 90.6383 110.907 89.2043L110.254 88.3129H111.729L111.78 88.3225C115.156 88.9535 117.759 91.1207 118.516 94.2147L118.685 94.908H112.764ZM113.012 72.239L113.933 73.0149C119.761 77.9241 123.233 83.9488 123.233 91.828C123.233 94.5236 122.87 97.031 122.195 99.3478L121.097 99.191V96.088C121.097 91.1197 117.769 87.5604 113.415 86.2897L113.012 86.172V72.239ZM118.737 106.528L118.632 106.674C117.241 108.617 115.578 110.342 113.706 111.851L112.795 112.587V97.268H118.737V106.528ZM110.435 114.149L110.161 114.312C106.993 116.202 103.426 117.599 99.6705 118.487L98.9812 118.65V97.268H110.435V114.149ZM96.6212 119.094L96.1434 119.165C92.6043 119.691 88.9729 119.782 85.4192 119.43L84.9141 119.38V97.268H96.6212V119.094ZM82.5541 119.053L81.8914 118.93C77.7965 118.168 73.9014 116.795 70.474 114.811L70.1944 114.649V97.268H82.5541V119.053ZM67.8344 113.121L66.9252 112.397C65.1803 111.008 63.6203 109.419 62.2924 107.631L62.182 107.482V97.268H67.8344V113.121ZM84.9141 85.9529V67.3935H96.6212V85.9529H84.9141ZM84.9141 94.908V88.3129H96.6212V94.908H84.9141Z" fill="#F9F9F9"/>
</g>
<defs>
<filter id="filter0_d_246_1709" x="26" y="26" width="130" height="130" filterUnits="userSpaceOnUse" color-interpolation-filters="sRGB">
<feFlood flood-opacity="0" result="BackgroundImageFix"/>
<feColorMatrix in="SourceAlpha" type="matrix" values="0 0 0 0 0 0 0 0 0 0 0 0 0 0 0 0 0 0 127 0" result="hardAlpha"/>
<feOffset dx="2" dy="2"/>
<feComposite in2="hardAlpha" operator="out"/>
<feColorMatrix type="matrix" values="0 0 0 0 0 0 0 0 0 0.42 0 0 0 0 0.196 0 0 0 1 0"/>
<feBlend mode="normal" in2="BackgroundImageFix" result="effect1_dropShadow_246_1709"/>
<feBlend mode="normal" in="SourceGraphic" in2="effect1_dropShadow_246_1709" result="shape"/>
</filter>
<filter id="filter1_d_246_1709" x="55" y="58" width="72.5927" height="66" filterUnits="userSpaceOnUse" color-interpolation-filters="sRGB">
<feFlood flood-opacity="0" result="BackgroundImageFix"/>
<feColorMatrix in="SourceAlpha" type="matrix" values="0 0 0 0 0 0 0 0 0 0 0 0 0 0 0 0 0 0 127 0" result="hardAlpha"/>
<feOffset dx="2" dy="2"/>
<feComposite in2="hardAlpha" operator="out"/>
<feColorMatrix type="matrix" values="0 0 0 0 0 0 0 0 0 0 0 0 0 0 0 0 0 0 0.2 0"/>
<feBlend mode="normal" in2="BackgroundImageFix" result="effect1_dropShadow_246_1709"/>
<feBlend mode="normal" in="SourceGraphic" in2="effect1_dropShadow_246_1709" result="shape"/>
</filter>
</defs>
</svg>
