<svg width="180" height="180" viewBox="0 0 180 180" fill="none" xmlns="http://www.w3.org/2000/svg">
<g filter="url(#filter0_d_246_1631)">
<path d="M82.4324 151.412L29.1135 97.8686C24.9622 93.6998 24.9622 86.8386 29.1135 82.6698L82.4324 29.1266C86.5838 24.9578 93.4162 24.9578 97.5676 29.1266L150.886 82.6698C155.038 86.8386 155.038 93.6998 150.886 97.8686L97.5676 151.412C95.6154 153.372 92.5845 153.985 89.7961 154C87.203 154.014 84.2216 153.208 82.4324 151.412Z" fill="#4CAF50"/>
</g>
<g filter="url(#filter1_d_246_1631)">
<path d="M114.719 81.9007L115.288 85.3432C115.529 86.8325 115.757 88.3217 115.997 89.8151L116.811 94.8439C116.963 95.7593 117.107 96.679 117.263 97.5987C117.305 97.8392 117.275 97.9615 116.98 98.0164C113.647 98.6618 110.31 99.3284 106.973 99.9823C102.809 100.801 98.6411 101.607 94.4772 102.421C92.3003 102.847 90.1319 103.286 87.955 103.716C87.9171 103.724 87.8833 103.716 87.82 103.712C87.5753 102.838 87.318 101.965 87.0944 101.083C87.0691 100.991 87.1619 100.83 87.2547 100.746L114.719 81.9007Z" fill="white"/>
<path d="M93.9752 105.399C94.0596 105.399 94.1861 105.484 94.2578 105.551C95.5403 106.825 96.7764 108.146 98.1011 109.369C99.2149 110.398 100.43 111.314 101.603 112.28C103.269 113.647 104.729 115.22 105.986 116.975C108.18 120.042 109.766 123.396 110.648 127.067C110.697 127.424 110.651 127.788 110.513 128.121C110.133 129.239 109.323 130.049 108.429 130.771C107.18 131.783 105.771 132.543 104.286 133.159C103.978 133.285 103.864 133.222 103.729 132.922C102.198 129.573 100.649 126.231 99.1052 122.89L92.8319 109.293L91.368 106.129L91.2836 105.91C92.1864 105.737 93.0724 105.559 93.9583 105.403L93.9752 105.399Z" fill="white"/>
<path fill-rule="evenodd" clip-rule="evenodd" d="M86.1325 116.44C86.6303 116.44 87.1239 116.461 87.6218 116.503C89.8872 116.693 92.1443 116.971 94.4055 117.224C94.5194 117.237 94.6713 117.351 94.7219 117.456C95.6374 119.435 96.5444 121.418 97.4472 123.405C97.4894 123.489 97.4894 123.624 97.4472 123.7L94.9286 128.248C93.1694 127.948 91.4524 127.624 89.7227 127.37C88.3949 127.175 87.0611 127.023 85.7233 126.915C84.3564 126.805 82.9853 126.704 81.6185 126.708C79.3277 126.708 77.0496 126.919 74.8558 127.657L74.666 127.716L75.9527 124.721C76.7585 122.839 77.5896 120.966 78.3574 119.068C78.6049 118.457 79.0649 117.957 79.6525 117.659C80.6549 117.143 81.7428 116.814 82.863 116.689C83.9472 116.537 85.0399 116.44 86.1325 116.44ZM80.6313 118.465C82.4464 117.926 84.3243 117.629 86.2169 117.579C86.946 117.575 87.6737 117.647 88.3896 117.785C88.4807 117.802 88.5719 117.83 88.663 117.858C88.6697 117.86 88.6764 117.862 88.6832 117.864C88.6992 117.869 88.7152 117.873 88.7313 117.878C86.3139 117.701 84.0485 118.33 81.7914 119.026C81.6021 119.088 81.4359 119.205 81.3147 119.363C80.1043 121.042 78.9022 122.729 77.7002 124.416L77.6993 124.417C77.6768 124.448 77.6655 124.487 77.6542 124.525C77.6486 124.544 77.643 124.564 77.636 124.582L77.5389 124.497C77.6092 124.35 77.6791 124.202 77.7489 124.054C77.8886 123.757 78.0283 123.461 78.1718 123.169C78.8678 121.705 79.5682 120.241 80.2811 118.785C80.3536 118.638 80.4785 118.524 80.6313 118.465Z" fill="white"/>
<path fill-rule="evenodd" clip-rule="evenodd" d="M94.4899 75.2942C94.9835 75.2942 95.4771 75.3068 95.9707 75.3406C99.3752 75.5642 102.556 76.5978 105.564 78.1925C107.492 79.2134 109.268 80.4537 110.922 81.867C111.205 82.1075 111.47 82.3648 111.774 82.6432L105.94 86.6511L90.2332 97.3836C88.9338 98.2695 87.6386 99.1765 86.3308 100.054C86.0355 100.248 85.9427 100.417 86.0271 100.78C86.3646 102.239 86.6472 103.707 86.9552 105.167C86.9678 105.23 86.9974 105.285 87.0269 105.374L89.651 104.855L94.8864 115.849C94.2621 115.765 93.6968 115.676 93.1272 115.609C91.9249 115.474 90.7225 115.326 89.516 115.229C88.453 115.13 87.3857 115.085 86.3182 115.094C84.4071 115.136 82.4918 115.254 80.665 115.904C79.6441 116.267 78.7244 116.781 78.041 117.726C77.5811 117.275 77.1171 116.849 76.691 116.393C74.9381 114.521 73.4966 112.381 72.4216 110.052C71.455 107.954 70.7876 105.73 70.4388 103.446C70.1525 101.661 70.0803 99.8481 70.2236 98.0459C70.5554 93.617 72.0916 89.3631 74.666 85.744C76.5406 83.081 78.9237 80.8153 81.6781 79.0776C84.4324 77.3398 87.5034 76.1644 90.7141 75.619C91.9671 75.4039 93.2285 75.2942 94.4899 75.2942ZM88.3052 78.7451C88.3869 78.7059 88.4686 78.6717 88.5523 78.6368C88.5766 78.6266 88.6011 78.6163 88.6258 78.6059C86.9552 79.5762 85.3816 80.6647 83.905 81.8881C80.1166 85.0353 77.0875 88.7351 75.5182 93.4897C75.0836 94.8143 74.8347 96.1728 74.7082 97.565C74.3749 101.379 75.2439 104.944 76.9019 108.34C77.3209 109.195 77.8091 110.016 78.2974 110.838C78.5221 111.216 78.7468 111.595 78.9649 111.976L79.1336 112.272C78.9839 112.348 78.8364 112.424 78.69 112.499C78.3332 112.683 77.9836 112.863 77.6275 113.031C77.4546 113.111 77.2816 113.145 77.1424 112.9C75.6911 110.356 74.493 107.703 73.7758 104.855C73.2696 102.876 72.9827 100.864 73.0586 98.8179C73.1696 95.4501 74.168 92.1713 75.9527 89.3131C77.5341 86.8026 79.5364 84.5834 81.8716 82.7529C83.8465 81.1622 86.0068 79.8165 88.3052 78.7451Z" fill="white"/>
<path d="M71.2235 110.483C71.3711 110.483 71.4766 110.554 71.5778 110.736C72.1347 111.715 72.2444 112.158 73.3961 113.942L64.4735 118.697C63.3836 116.785 62.4428 114.792 61.6596 112.736L63.7268 112.242L71.0336 110.5C71.097 110.483 71.1622 110.474 71.2277 110.474L71.2235 110.483Z" fill="white"/>
<path d="M69.4263 105.15C66.4943 104.526 63.5791 103.927 60.6428 103.315C60.2047 103.221 59.7629 103.138 59.3074 103.053L59.2006 103.033C59.4717 105.084 59.8903 107.112 60.453 109.103H60.4825C62.0477 109.069 63.6128 109.044 65.1738 109.027C66.4985 109.019 67.8232 109.027 69.1478 109.027H70.8396C70.8058 108.897 70.0085 106.623 69.7553 105.441C69.7427 105.327 69.5528 105.18 69.4263 105.15Z" fill="white"/>
<path d="M59.276 91.0765L61.6891 92.5784C64.0769 94.0634 66.5111 95.5611 68.9032 97.0376C69.1352 97.1811 69.2196 97.3245 69.2069 97.5861C69.1689 98.2273 69.0171 101.206 69.3546 103.302L67.5827 102.682C64.7266 101.695 61.8747 100.704 59.0186 99.7292C58.9748 99.7132 58.9324 99.6935 58.8921 99.6701C58.7373 96.8001 58.8687 93.9217 59.276 91.0765Z" fill="white"/>
<path d="M62.7311 79.3906L64.195 81.3481C66.3297 84.2168 68.4897 87.0771 70.6244 89.9417C70.7805 90.1526 70.8986 90.3256 70.7805 90.6251C70.1772 92.1692 69.6414 94.1267 69.4389 95.7087C68.9158 95.2489 68.3969 94.7975 67.9202 94.3714L61.5836 88.7857C61.0943 88.3512 60.6007 87.9209 60.1239 87.4695C60.0653 87.4085 60.0245 87.3326 60.0058 87.2501C60.6326 84.6317 61.5041 82.078 62.6088 79.6226L62.7311 79.3906Z" fill="white"/>
<path d="M71.9702 66.2914L72.5693 68.9576L74.7714 78.7578C75.0499 79.9939 75.3325 81.154 75.5941 82.3943C75.6044 82.4632 75.6007 82.5334 75.5834 82.6008C75.566 82.6682 75.5352 82.7314 75.4928 82.7867C73.8891 84.6661 72.5349 86.7449 71.4639 88.9714L70.2953 86.6131C68.4813 82.9639 66.6714 79.3146 64.8532 75.6739C64.8075 75.5924 64.7815 75.5014 64.7772 75.4081L65.3046 74.539C66.355 73.0498 67.376 71.5311 68.4897 70.0882C69.3208 69.0167 70.3164 68.0759 71.2361 67.0761L71.9702 66.2914Z" fill="white"/>
<path d="M88.2293 56.39C88.1618 56.8287 88.1027 57.2379 88.031 57.6471C87.2201 62.3266 86.4044 67.0052 85.5841 71.6829C85.331 73.1679 85.0989 74.404 84.8669 75.8932C84.8247 76.1717 84.6518 76.2139 84.4746 76.2856C80.7368 77.8381 77.7035 80.5423 76.7247 81.5L76.5011 78.8211C76.4168 77.8634 76.345 76.91 76.2691 75.9565C76.1889 74.9651 76.113 73.9737 76.0286 72.9865L75.7755 70.0967L75.535 67.2364L75.2819 64.2706C75.2608 63.9921 75.2186 63.7137 75.2228 63.4353L75.2271 63.4142C79.1182 60.3323 83.5187 57.955 88.2293 56.39Z" fill="white"/>
<path d="M101.539 54.2468C103.337 54.2468 105.104 54.3607 106.847 54.5801L104.298 59.3051L99.5903 68.0506L96.3968 74.0159C96.2828 74.2268 96.1605 74.3112 95.9158 74.2986C90.9082 73.9611 87.4066 75.29 86.8202 75.4207L87.6639 72.2567L91.946 56.3604C92.043 56.0018 92.1443 55.6432 92.2329 55.2804C95.2874 54.5941 98.4087 54.2446 101.539 54.2468Z" fill="white"/>
<path d="M112.272 55.6264C117.296 56.9426 121.967 59.1617 126.097 62.0979L118.516 68.4809L111.293 74.5348C110.078 75.5557 108.863 76.5851 107.661 77.6229C107.467 77.7875 107.323 77.8043 107.083 77.6946C104.617 76.2369 101.914 75.2258 99.0968 74.7078L101.05 71.8812L108.77 60.6973C109.939 59.0098 111.108 57.3223 112.272 55.6264Z" fill="white"/>
<path fill-rule="evenodd" clip-rule="evenodd" d="M59.2006 103.033L59.2 103.032V103.028L59.2006 103.033Z" fill="white"/>
</g>
<defs>
<filter id="filter0_d_246_1631" x="26" y="26" width="130" height="130" filterUnits="userSpaceOnUse" color-interpolation-filters="sRGB">
<feFlood flood-opacity="0" result="BackgroundImageFix"/>
<feColorMatrix in="SourceAlpha" type="matrix" values="0 0 0 0 0 0 0 0 0 0 0 0 0 0 0 0 0 0 127 0" result="hardAlpha"/>
<feOffset dx="2" dy="2"/>
<feComposite in2="hardAlpha" operator="out"/>
<feColorMatrix type="matrix" values="0 0 0 0 0 0 0 0 0 0.42 0 0 0 0 0.196 0 0 0 1 0"/>
<feBlend mode="normal" in2="BackgroundImageFix" result="effect1_dropShadow_246_1631"/>
<feBlend mode="normal" in="SourceGraphic" in2="effect1_dropShadow_246_1631" result="shape"/>
</filter>
<filter id="filter1_d_246_1631" x="58.8291" y="54.2468" width="69.2677" height="80.9734" filterUnits="userSpaceOnUse" color-interpolation-filters="sRGB">
<feFlood flood-opacity="0" result="BackgroundImageFix"/>
<feColorMatrix in="SourceAlpha" type="matrix" values="0 0 0 0 0 0 0 0 0 0 0 0 0 0 0 0 0 0 127 0" result="hardAlpha"/>
<feOffset dx="2" dy="2"/>
<feComposite in2="hardAlpha" operator="out"/>
<feColorMatrix type="matrix" values="0 0 0 0 0 0 0 0 0 0 0 0 0 0 0 0 0 0 0.2 0"/>
<feBlend mode="normal" in2="BackgroundImageFix" result="effect1_dropShadow_246_1631"/>
<feBlend mode="normal" in="SourceGraphic" in2="effect1_dropShadow_246_1631" result="shape"/>
</filter>
</defs>
</svg>
