<svg width="180" height="180" viewBox="0 0 180 180" fill="none" xmlns="http://www.w3.org/2000/svg">
<g filter="url(#filter0_d_246_1645)">
<path d="M82.4324 151.412L29.1135 97.8686C24.9622 93.6998 24.9622 86.8386 29.1135 82.6698L82.4324 29.1266C86.5838 24.9578 93.4162 24.9578 97.5676 29.1266L150.886 82.6698C155.038 86.8386 155.038 93.6998 150.886 97.8686L97.5676 151.412C95.6154 153.372 92.5845 153.985 89.7961 154C87.203 154.014 84.2216 153.208 82.4324 151.412Z" fill="#4CAF50"/>
</g>
<g clip-path="url(#clip0_246_1645)">
<g filter="url(#filter1_d_246_1645)">
<path fill-rule="evenodd" clip-rule="evenodd" d="M64.6048 71.322L74.1276 107.263L75.2539 103.372L76.6875 108.696H52.6245L53.9557 103.372L54.9796 107.263L64.4 71.322H64.6048ZM64.4 93.7466V74.7011H64.6048L68.4958 90.3676L64.4 93.7466Z" fill="#F9F9F9"/>
<path d="M57.0273 81.4592C59.3142 81.7663 64.5431 83.1999 67.1645 86.4765C66.673 87.05 65.6627 88.2173 65.219 88.7292L75.4585 89.2412L74.537 80.3328L71.9771 82.2783C68.2226 80.2304 60.304 76.749 57.0273 81.4592Z" fill="#3598DB" fill-opacity="0.75"/>
<path d="M59.1776 83.1999C57.4028 82.449 54.0783 81.8483 54.9794 85.4526C55.5528 87.0909 57.2662 88.5245 58.0513 89.0364C56.9249 87.8418 55.5733 85.0021 59.1776 83.1999Z" fill="#3598DB" fill-opacity="0.75"/>
<path d="M73.9228 101.836C71.6359 101.529 66.4069 100.095 63.7856 96.8185C64.2771 96.2451 65.2874 95.0778 65.7311 94.5658L55.4916 94.0538L56.4131 102.962L58.973 101.017C62.7275 103.065 70.6461 106.546 73.9228 101.836Z" fill="#27AE5F" fill-opacity="0.75"/>
<path d="M71.7724 100.095C73.5473 100.846 76.8717 101.447 75.9707 97.8425C75.3973 96.2041 73.6838 94.7706 72.8988 94.2586C74.0252 95.4532 75.3768 98.293 71.7724 100.095Z" fill="#27AE5F" fill-opacity="0.75"/>
</g>
<g filter="url(#filter2_d_246_1645)">
<path d="M122.504 79.1479C122.891 78.9231 123.3 78.7522 123.732 78.6353C124.163 78.5094 124.622 78.4464 125.107 78.4464C125.494 78.4464 125.845 78.4914 126.16 78.5813C126.483 78.6713 126.758 78.8151 126.982 79.013C127.216 79.2018 127.392 79.4492 127.509 79.7549C127.634 80.0517 127.697 80.4114 127.697 80.8341V85.0158H126.308L126.146 84.3548H126.092C125.885 84.6066 125.62 84.8045 125.296 84.9484C124.982 85.0923 124.613 85.1642 124.19 85.1642C123.839 85.1642 123.529 85.1147 123.259 85.0158C122.99 84.9079 122.76 84.7685 122.571 84.5976C122.383 84.4178 122.239 84.2064 122.14 83.9636C122.05 83.7208 122.005 83.46 122.005 83.1812C122.005 82.8125 122.081 82.4978 122.234 82.237C122.396 81.9672 122.616 81.7469 122.895 81.576C123.174 81.4051 123.498 81.2792 123.866 81.1983C124.244 81.1174 124.649 81.0769 125.08 81.0769H125.89V80.6857C125.89 80.3889 125.795 80.1731 125.607 80.0382C125.427 79.8943 125.17 79.8224 124.838 79.8224C124.577 79.8224 124.307 79.8628 124.028 79.9438C123.759 80.0247 123.457 80.1551 123.125 80.335L122.504 79.1479ZM125.903 82.1965L125.323 82.21C124.775 82.228 124.393 82.3224 124.177 82.4933C123.961 82.6552 123.853 82.853 123.853 83.0868C123.853 83.3926 123.943 83.6039 124.123 83.7208C124.312 83.8287 124.523 83.8827 124.757 83.8827C124.991 83.8827 125.211 83.8152 125.418 83.6804C125.634 83.5455 125.795 83.3881 125.903 83.2082V82.1965ZM125.499 77.6236H124.231L125.175 75.6136H126.969L125.499 77.6236Z" fill="#F9F9F9"/>
<path d="M114.872 80.7666C114.872 80.4159 114.94 80.0966 115.075 79.8088C115.219 79.5211 115.412 79.2783 115.655 79.0804C115.907 78.8736 116.199 78.7162 116.532 78.6083C116.873 78.5004 117.247 78.4464 117.651 78.4464C117.804 78.4464 117.97 78.4599 118.15 78.4869C118.33 78.5049 118.497 78.5363 118.649 78.5813H121.401V79.7144H120.821L119.985 79.593C120.102 79.7369 120.196 79.9168 120.268 80.1326C120.349 80.3484 120.39 80.5643 120.39 80.7801C120.39 81.4636 120.142 82.0166 119.648 82.4393C119.162 82.853 118.492 83.0598 117.638 83.0598C117.413 83.0598 117.215 83.0418 117.044 83.0059C116.819 83.0958 116.707 83.2442 116.707 83.451C116.707 83.5949 116.756 83.7028 116.855 83.7748C116.954 83.8467 117.13 83.8827 117.381 83.8827H118.825C119.535 83.8827 120.102 84.04 120.524 84.3548C120.956 84.6606 121.172 85.1552 121.172 85.8386C121.172 86.1894 121.087 86.5086 120.916 86.7964C120.754 87.0932 120.52 87.345 120.214 87.5518C119.908 87.7676 119.54 87.934 119.108 88.0509C118.676 88.1678 118.195 88.2263 117.665 88.2263C116.684 88.2263 115.907 88.0509 115.331 87.7002C114.764 87.3585 114.481 86.8638 114.481 86.2163C114.481 85.9196 114.58 85.6588 114.778 85.434C114.976 85.2181 115.25 85.0473 115.601 84.9214C115.475 84.8314 115.349 84.7055 115.223 84.5437C115.097 84.3728 115.034 84.1615 115.034 83.9096C115.034 83.6129 115.124 83.3566 115.304 83.1407C115.484 82.9249 115.713 82.7541 115.992 82.6281C115.857 82.5562 115.722 82.4663 115.587 82.3584C115.461 82.2415 115.345 82.1066 115.237 81.9537C115.129 81.8008 115.039 81.6254 114.967 81.4276C114.904 81.2297 114.872 81.0094 114.872 80.7666ZM116.599 85.2316C116.464 85.3036 116.352 85.398 116.262 85.5149C116.172 85.6318 116.127 85.7802 116.127 85.96C116.127 86.2208 116.244 86.4367 116.478 86.6075C116.72 86.7874 117.134 86.8773 117.719 86.8773C118.303 86.8773 118.73 86.7784 119 86.5806C119.27 86.3827 119.405 86.1579 119.405 85.9061C119.405 85.6543 119.319 85.4789 119.149 85.38C118.978 85.2811 118.712 85.2316 118.353 85.2316H116.599ZM118.636 80.7531C118.636 80.4024 118.542 80.1371 118.353 79.9572C118.164 79.7774 117.926 79.6874 117.638 79.6874C117.341 79.6874 117.098 79.7774 116.909 79.9572C116.729 80.1371 116.64 80.3979 116.64 80.7396C116.64 81.0993 116.734 81.3691 116.923 81.549C117.112 81.7288 117.35 81.8188 117.638 81.8188C117.935 81.8188 118.173 81.7288 118.353 81.549C118.542 81.3691 118.636 81.1038 118.636 80.7531Z" fill="#F9F9F9"/>
<path d="M109.186 85.0158H107.392V78.5813H108.795L109.01 79.4042C109.307 79.0984 109.631 78.8646 109.982 78.7027C110.341 78.5318 110.737 78.4464 111.169 78.4464C111.879 78.4464 112.423 78.6398 112.801 79.0265C113.179 79.4132 113.367 79.9752 113.367 80.7126V85.0158H111.573V80.9015C111.573 80.5688 111.492 80.308 111.331 80.1191C111.169 79.9213 110.93 79.8223 110.616 79.8223C110.382 79.8223 110.134 79.8898 109.874 80.0247C109.622 80.1506 109.393 80.3259 109.186 80.5508V85.0158Z" fill="#F9F9F9"/>
<path d="M103.812 85.0158V78.5813H105.606V85.0158H103.812ZM104.716 77.2054C104.41 77.2054 104.172 77.12 104.001 76.9491C103.83 76.7693 103.745 76.5489 103.745 76.2881C103.745 76.0273 103.83 75.8115 104.001 75.6406C104.172 75.4608 104.41 75.3708 104.716 75.3708C105.013 75.3708 105.246 75.4608 105.417 75.6406C105.597 75.8115 105.687 76.0273 105.687 76.2881C105.687 76.5489 105.602 76.7693 105.431 76.9491C105.26 77.12 105.022 77.2054 104.716 77.2054Z" fill="#F9F9F9"/>
<path d="M98.4734 85.0158V78.5813H99.8628L100.065 79.7414C100.218 79.3997 100.461 79.0984 100.794 78.8376C101.126 78.5768 101.544 78.4464 102.048 78.4464C102.255 78.4464 102.439 78.4689 102.601 78.5139C102.763 78.5588 102.898 78.6128 103.006 78.6757L102.709 80.0921C102.61 80.0382 102.484 79.9932 102.331 79.9572C102.178 79.9123 101.999 79.8898 101.792 79.8898C101.351 79.8898 100.982 80.0382 100.686 80.3349C100.398 80.6227 100.254 81.0993 100.254 81.7648V85.0158H98.4734Z" fill="#F9F9F9"/>
<path d="M91.7574 79.1479C92.1441 78.923 92.5533 78.7522 92.985 78.6353C93.4166 78.5094 93.8753 78.4464 94.3609 78.4464C94.7476 78.4464 95.0983 78.4914 95.4131 78.5813C95.7368 78.6712 96.0111 78.8151 96.2359 79.013C96.4697 79.2018 96.6451 79.4491 96.762 79.7549C96.8879 80.0517 96.9509 80.4114 96.9509 80.834V85.0158H95.5614L95.3996 84.3548H95.3456C95.1388 84.6066 94.8735 84.8045 94.5497 84.9483C94.235 85.0922 93.8663 85.1642 93.4436 85.1642C93.0929 85.1642 92.7826 85.1147 92.5128 85.0158C92.243 84.9079 92.0137 84.7685 91.8249 84.5976C91.636 84.4178 91.4921 84.2064 91.3932 83.9636C91.3033 83.7208 91.2583 83.46 91.2583 83.1812C91.2583 82.8125 91.3347 82.4978 91.4876 82.237C91.6495 81.9672 91.8698 81.7468 92.1486 81.576C92.4274 81.4051 92.7511 81.2792 93.1198 81.1983C93.4976 81.1173 93.9022 81.0769 94.3339 81.0769H95.1433V80.6857C95.1433 80.3889 95.0488 80.1731 94.86 80.0382C94.6801 79.8943 94.4238 79.8223 94.0911 79.8223C93.8303 79.8223 93.5605 79.8628 93.2817 79.9437C93.0119 80.0247 92.7107 80.1551 92.3779 80.3349L91.7574 79.1479ZM95.1568 82.1965L94.5767 82.21C94.0281 82.228 93.6459 82.3224 93.4301 82.4933C93.2143 82.6551 93.1064 82.853 93.1064 83.0868C93.1064 83.3926 93.1963 83.6039 93.3761 83.7208C93.565 83.8287 93.7763 83.8827 94.0102 83.8827C94.244 83.8827 94.4643 83.8152 94.6711 83.6803C94.887 83.5454 95.0488 83.3881 95.1568 83.2082V82.1965Z" fill="#F9F9F9"/>
<path d="M81.0736 76.5175H83.4073L84.6213 80.3889C84.6753 80.5598 84.7292 80.7442 84.7832 80.942C84.8461 81.1399 84.9046 81.3377 84.9585 81.5355C85.0125 81.7334 85.062 81.9267 85.1069 82.1156C85.1519 82.3044 85.1879 82.4798 85.2148 82.6417H85.2688C85.2958 82.4978 85.3318 82.3314 85.3767 82.1426C85.4217 81.9447 85.4711 81.7424 85.5251 81.5355C85.5791 81.3287 85.633 81.1264 85.687 80.9285C85.7409 80.7307 85.7904 80.5508 85.8354 80.3889L87.0089 76.5175H89.3426L89.9766 85.0158H88.2365C88.1825 84.0806 88.1286 83.1453 88.0746 82.21C88.0207 81.2747 87.9847 80.3305 87.9667 79.3772L87.9532 78.2711H87.9127C87.7958 78.7657 87.6654 79.2828 87.5215 79.8224C87.3867 80.362 87.2563 80.8341 87.1304 81.2388L85.9298 85.0158H84.4999L83.2724 81.2253C83.1195 80.7397 82.9756 80.2271 82.8407 79.6875C82.7058 79.1479 82.5979 78.6758 82.517 78.2711H82.4765C82.4765 78.5948 82.472 78.9366 82.463 79.2963C82.454 79.647 82.4405 79.9977 82.4225 80.3485C82.4135 80.6992 82.4 81.0454 82.3821 81.3872C82.3731 81.7199 82.3596 82.0257 82.3416 82.3044L82.1797 85.0158H80.4666L81.0736 76.5175Z" fill="#F9F9F9"/>
</g>
<g filter="url(#filter3_d_246_1645)">
<path d="M108.539 95.8786H104.457V95.9301C104.457 96.4194 104.629 96.7843 104.973 97.0246C105.316 97.265 105.758 97.3851 106.299 97.3851C106.642 97.3851 106.943 97.3508 107.2 97.2821C107.466 97.2135 107.707 97.1319 107.921 97.0375L108.23 98.235C107.998 98.3466 107.707 98.441 107.355 98.5183C107.003 98.6041 106.586 98.647 106.106 98.647C105.642 98.647 105.204 98.5869 104.792 98.4668C104.389 98.338 104.033 98.1448 103.724 97.8873C103.423 97.6298 103.183 97.3036 103.002 96.9087C102.822 96.5138 102.732 96.0417 102.732 95.4923C102.732 95.003 102.805 94.5609 102.951 94.1661C103.097 93.7626 103.303 93.4192 103.569 93.136C103.844 92.8527 104.17 92.6338 104.548 92.4793C104.925 92.3162 105.346 92.2346 105.809 92.2346C106.642 92.2346 107.303 92.4879 107.792 92.9943C108.29 93.5008 108.539 94.209 108.539 95.1189V95.8786ZM106.788 94.7069C106.788 94.5438 106.767 94.385 106.724 94.2304C106.689 94.0759 106.629 93.9429 106.543 93.8313C106.458 93.7111 106.35 93.6167 106.222 93.548C106.093 93.4793 105.934 93.445 105.745 93.445C105.402 93.445 105.118 93.5609 104.895 93.7927C104.672 94.0244 104.539 94.3378 104.496 94.7326L106.788 94.7069Z" fill="#F9F9F9"/>
<path d="M99.7863 98.5053V89.3116H101.473V98.5053H99.7863Z" fill="#F9F9F9"/>
<path d="M96.3177 98.5054V92.3634H98.0302V98.5054H96.3177ZM97.1804 91.05C96.8885 91.05 96.661 90.9685 96.4979 90.8054C96.3348 90.6337 96.2533 90.4234 96.2533 90.1744C96.2533 89.9255 96.3348 89.7195 96.4979 89.5564C96.661 89.3847 96.8885 89.2988 97.1804 89.2988C97.4637 89.2988 97.6869 89.3847 97.85 89.5564C98.0216 89.7195 98.1075 89.9255 98.1075 90.1744C98.1075 90.4234 98.0259 90.6337 97.8628 90.8054C97.6997 90.9685 97.4723 91.05 97.1804 91.05Z" fill="#F9F9F9"/>
<path d="M88.8058 94.4493C88.8058 94.1146 88.8702 93.8098 88.9989 93.5351C89.1363 93.2604 89.3208 93.0287 89.5526 92.8398C89.793 92.6424 90.072 92.4921 90.3896 92.3891C90.7158 92.2861 91.072 92.2346 91.4583 92.2346C91.6042 92.2346 91.763 92.2475 91.9347 92.2732C92.1064 92.2904 92.2652 92.3205 92.4112 92.3634H95.0379V93.445H94.4842L93.6859 93.3291C93.7975 93.4665 93.8876 93.6381 93.9563 93.8442C94.0336 94.0502 94.0722 94.2562 94.0722 94.4622C94.0722 95.1146 93.8361 95.6426 93.364 96.046C92.9005 96.4409 92.2609 96.6383 91.4454 96.6383C91.2308 96.6383 91.042 96.6212 90.8789 96.5868C90.6643 96.6727 90.557 96.8143 90.557 97.0117C90.557 97.1491 90.6042 97.2521 90.6986 97.3208C90.793 97.3894 90.9604 97.4238 91.2008 97.4238H92.5785C93.2567 97.4238 93.7975 97.574 94.201 97.8744C94.613 98.1663 94.819 98.6384 94.819 99.2908C94.819 99.6256 94.7375 99.9304 94.5744 100.205C94.4199 100.488 94.1967 100.729 93.9048 100.926C93.6129 101.132 93.261 101.291 92.8489 101.403C92.4369 101.514 91.9777 101.57 91.4712 101.57C90.5355 101.57 89.793 101.403 89.2436 101.068C88.7028 100.742 88.4324 100.269 88.4324 99.6514C88.4324 99.3681 88.5268 99.1192 88.7157 98.9046C88.9045 98.6985 89.1663 98.5354 89.5011 98.4153C89.3809 98.3294 89.2607 98.2092 89.1406 98.0547C89.0204 97.8916 88.9603 97.6899 88.9603 97.4495C88.9603 97.1662 89.0461 96.9216 89.2178 96.7156C89.3895 96.5096 89.6084 96.3465 89.8745 96.2263C89.7458 96.1576 89.617 96.0718 89.4882 95.9688C89.3681 95.8572 89.2565 95.7284 89.1534 95.5825C89.0504 95.4365 88.9646 95.2691 88.8959 95.0803C88.8358 94.8914 88.8058 94.6811 88.8058 94.4493ZM90.454 98.7114C90.3252 98.7801 90.2179 98.8702 90.132 98.9818C90.0462 99.0934 90.0033 99.235 90.0033 99.4067C90.0033 99.6557 90.1149 99.8617 90.3381 100.025C90.5698 100.196 90.9647 100.282 91.5227 100.282C92.0807 100.282 92.4884 100.188 92.7459 99.999C93.0035 99.8102 93.1322 99.5956 93.1322 99.3552C93.1322 99.1149 93.0507 98.9475 92.8876 98.853C92.7245 98.7586 92.4712 98.7114 92.1279 98.7114H90.454ZM92.3983 94.4365C92.3983 94.1017 92.3081 93.8485 92.1279 93.6768C91.9476 93.5051 91.7201 93.4192 91.4454 93.4192C91.1622 93.4192 90.9304 93.5051 90.7501 93.6768C90.5784 93.8485 90.4926 94.0974 90.4926 94.4236C90.4926 94.767 90.5827 95.0245 90.763 95.1962C90.9433 95.3679 91.1707 95.4537 91.4454 95.4537C91.7287 95.4537 91.9562 95.3679 92.1279 95.1962C92.3081 95.0245 92.3983 94.7713 92.3983 94.4365Z" fill="#F9F9F9"/>
<path d="M83.0383 95.3378H85.0985L84.7251 94.2562C84.6049 93.9214 84.4933 93.5866 84.3903 93.2519C84.2873 92.9085 84.1886 92.5651 84.0941 92.2217H84.0684C83.974 92.5479 83.871 92.8827 83.7594 93.2261C83.6478 93.5609 83.5319 93.9043 83.4117 94.2562L83.0383 95.3378ZM83.1928 90.3933H85.0212L88.0214 98.5054H86.1544L85.5234 96.6383H82.6391L82.0082 98.5054H80.1669L83.1928 90.3933Z" fill="#F9F9F9"/>
</g>
<g filter="url(#filter4_d_246_1645)">
<path d="M98.1287 105.718C98.0102 105.718 97.8956 105.702 97.785 105.671C97.6743 105.639 97.5795 105.596 97.5004 105.54V107.022H96.8959V102.826H97.3878L97.4649 103.175C97.5755 103.073 97.7 102.988 97.8383 102.92C97.9766 102.849 98.1366 102.814 98.3184 102.814C98.6898 102.814 98.9822 102.934 99.1956 103.175C99.409 103.416 99.5157 103.758 99.5157 104.201C99.5157 104.458 99.4762 104.683 99.3972 104.876C99.3221 105.066 99.2193 105.224 99.0889 105.351C98.9625 105.473 98.8143 105.566 98.6444 105.629C98.4784 105.688 98.3065 105.718 98.1287 105.718ZM98.1702 103.294C98.0201 103.294 97.8857 103.331 97.7672 103.406C97.6526 103.478 97.5637 103.553 97.5004 103.632V105.072C97.6625 105.194 97.8462 105.256 98.0517 105.256C98.1544 105.256 98.2552 105.238 98.354 105.202C98.4528 105.167 98.5417 105.108 98.6207 105.025C98.6997 104.942 98.7629 104.835 98.8104 104.704C98.8578 104.57 98.8815 104.408 98.8815 104.218C98.8815 103.938 98.8222 103.715 98.7037 103.549C98.5891 103.379 98.4113 103.294 98.1702 103.294Z" fill="#F9F9F9"/>
<path d="M95.5332 102.861H96.1437V105.659H95.6754L95.5984 105.321H95.5747C95.4759 105.424 95.3514 105.517 95.2013 105.6C95.0511 105.679 94.8693 105.718 94.656 105.718C94.3596 105.718 94.1225 105.635 93.9447 105.469C93.7669 105.303 93.678 105.054 93.678 104.722V102.861H94.2885V104.657C94.2885 104.874 94.3379 105.027 94.4367 105.114C94.5394 105.2 94.6619 105.244 94.8041 105.244C94.9583 105.244 95.0946 105.212 95.2131 105.149C95.3317 105.082 95.4384 104.995 95.5332 104.888V102.861Z" fill="#F9F9F9"/>
<path d="M93.0253 103.312H92.231V104.823C92.231 104.961 92.2627 105.054 92.3259 105.102C92.393 105.149 92.482 105.173 92.5926 105.173C92.6716 105.173 92.7546 105.165 92.8415 105.149C92.9324 105.129 93.0115 105.108 93.0786 105.084L93.1735 105.534C93.0944 105.566 92.9917 105.596 92.8652 105.623C92.7428 105.647 92.6124 105.659 92.4741 105.659C92.1737 105.659 91.9564 105.598 91.8221 105.475C91.6917 105.349 91.6265 105.163 91.6265 104.918V103.312H91.1997V102.861H91.6265V101.978H92.231V102.861H93.0253V103.312Z" fill="#F9F9F9"/>
<path d="M90.8927 104.367H88.9308V104.39C88.9308 104.675 89.0138 104.89 89.1797 105.036C89.3457 105.183 89.565 105.256 89.8376 105.256C89.9878 105.256 90.1221 105.244 90.2407 105.22C90.3632 105.193 90.4857 105.151 90.6082 105.096L90.7267 105.54C90.6121 105.592 90.4758 105.633 90.3177 105.665C90.1597 105.7 89.9858 105.718 89.7961 105.718C89.5946 105.718 89.403 105.69 89.2212 105.635C89.0394 105.58 88.8794 105.493 88.7411 105.374C88.6068 105.256 88.5001 105.106 88.421 104.924C88.342 104.742 88.3025 104.525 88.3025 104.272C88.3025 104.054 88.3341 103.857 88.3973 103.679C88.4645 103.497 88.5574 103.343 88.6759 103.217C88.7984 103.086 88.9446 102.988 89.1145 102.92C89.2884 102.849 89.48 102.814 89.6895 102.814C89.8712 102.814 90.0352 102.843 90.1814 102.903C90.3316 102.962 90.458 103.047 90.5608 103.157C90.6674 103.264 90.7484 103.397 90.8038 103.555C90.863 103.709 90.8927 103.881 90.8927 104.07V104.367ZM90.2644 103.94C90.2644 103.845 90.2525 103.756 90.2288 103.673C90.2051 103.59 90.1696 103.519 90.1221 103.46C90.0747 103.397 90.0115 103.347 89.9325 103.312C89.8574 103.272 89.7665 103.252 89.6598 103.252C89.4622 103.252 89.3002 103.316 89.1738 103.442C89.0513 103.568 88.9762 103.738 88.9486 103.952L90.2644 103.94Z" fill="#F9F9F9"/>
<path d="M87.8772 104.367H85.9153V104.39C85.9153 104.675 85.9983 104.89 86.1642 105.036C86.3302 105.183 86.5495 105.256 86.8221 105.256C86.9723 105.256 87.1066 105.244 87.2252 105.22C87.3477 105.193 87.4702 105.151 87.5927 105.096L87.7112 105.54C87.5966 105.592 87.4603 105.633 87.3022 105.665C87.1442 105.7 86.9703 105.718 86.7806 105.718C86.5791 105.718 86.3875 105.69 86.2057 105.635C86.0239 105.58 85.8639 105.493 85.7256 105.374C85.5912 105.256 85.4846 105.106 85.4055 104.924C85.3265 104.742 85.287 104.525 85.287 104.272C85.287 104.054 85.3186 103.857 85.3818 103.679C85.449 103.497 85.5419 103.343 85.6604 103.217C85.7829 103.086 85.9291 102.988 86.099 102.92C86.2729 102.849 86.4645 102.814 86.674 102.814C86.8557 102.814 87.0197 102.843 87.1659 102.903C87.3161 102.962 87.4425 103.047 87.5452 103.157C87.6519 103.264 87.7329 103.397 87.7883 103.555C87.8475 103.709 87.8772 103.881 87.8772 104.07V104.367ZM87.2489 103.94C87.2489 103.845 87.237 103.756 87.2133 103.673C87.1896 103.59 87.1541 103.519 87.1066 103.46C87.0592 103.397 86.996 103.347 86.917 103.312C86.8419 103.272 86.751 103.252 86.6443 103.252C86.4467 103.252 86.2847 103.316 86.1583 103.442C86.0358 103.568 85.9607 103.738 85.9331 103.952L87.2489 103.94Z" fill="#F9F9F9"/>
<path d="M80.8927 101.925H81.7106L82.3685 103.94C82.4239 104.11 82.4713 104.264 82.5108 104.402C82.5543 104.537 82.5977 104.689 82.6412 104.859H82.659C82.7024 104.716 82.7459 104.564 82.7894 104.402C82.8368 104.24 82.8822 104.086 82.9257 103.94L83.5599 101.925H84.3779L84.6861 105.659H84.0696C84.038 105.264 84.0064 104.867 83.9748 104.467C83.9472 104.064 83.9254 103.661 83.9096 103.258L83.8859 102.577H83.8741C83.8069 102.822 83.7358 103.071 83.6607 103.324C83.5895 103.576 83.5145 103.819 83.4354 104.053L82.9079 105.659H82.3685L81.8351 104.047C81.7798 103.877 81.7304 103.723 81.6869 103.584C81.6474 103.446 81.6099 103.32 81.5743 103.205C81.5427 103.086 81.5131 102.976 81.4854 102.873C81.4577 102.77 81.432 102.672 81.4083 102.577H81.3906C81.3787 102.913 81.3609 103.254 81.3372 103.602C81.3135 103.95 81.2918 104.284 81.272 104.604L81.2009 105.659H80.5963L80.8927 101.925Z" fill="#F9F9F9"/>
</g>
</g>
<defs>
<filter id="filter0_d_246_1645" x="26" y="26" width="130" height="130" filterUnits="userSpaceOnUse" color-interpolation-filters="sRGB">
<feFlood flood-opacity="0" result="BackgroundImageFix"/>
<feColorMatrix in="SourceAlpha" type="matrix" values="0 0 0 0 0 0 0 0 0 0 0 0 0 0 0 0 0 0 127 0" result="hardAlpha"/>
<feOffset dx="2" dy="2"/>
<feComposite in2="hardAlpha" operator="out"/>
<feColorMatrix type="matrix" values="0 0 0 0 0 0 0 0 0 0.42 0 0 0 0 0.196 0 0 0 1 0"/>
<feBlend mode="normal" in2="BackgroundImageFix" result="effect1_dropShadow_246_1645"/>
<feBlend mode="normal" in="SourceGraphic" in2="effect1_dropShadow_246_1645" result="shape"/>
</filter>
<filter id="filter1_d_246_1645" x="52.6245" y="71.322" width="24.863" height="38.1744" filterUnits="userSpaceOnUse" color-interpolation-filters="sRGB">
<feFlood flood-opacity="0" result="BackgroundImageFix"/>
<feColorMatrix in="SourceAlpha" type="matrix" values="0 0 0 0 0 0 0 0 0 0 0 0 0 0 0 0 0 0 127 0" result="hardAlpha"/>
<feOffset dx="0.8" dy="0.8"/>
<feComposite in2="hardAlpha" operator="out"/>
<feColorMatrix type="matrix" values="0 0 0 0 0 0 0 0 0 0 0 0 0 0 0 0 0 0 0.2 0"/>
<feBlend mode="normal" in2="BackgroundImageFix" result="effect1_dropShadow_246_1645"/>
<feBlend mode="normal" in="SourceGraphic" in2="effect1_dropShadow_246_1645" result="shape"/>
</filter>
<filter id="filter2_d_246_1645" x="80.4666" y="75.3708" width="48.0308" height="13.6555" filterUnits="userSpaceOnUse" color-interpolation-filters="sRGB">
<feFlood flood-opacity="0" result="BackgroundImageFix"/>
<feColorMatrix in="SourceAlpha" type="matrix" values="0 0 0 0 0 0 0 0 0 0 0 0 0 0 0 0 0 0 127 0" result="hardAlpha"/>
<feOffset dx="0.8" dy="0.8"/>
<feComposite in2="hardAlpha" operator="out"/>
<feColorMatrix type="matrix" values="0 0 0 0 0 0 0 0 0 0 0 0 0 0 0 0 0 0 0.2 0"/>
<feBlend mode="normal" in2="BackgroundImageFix" result="effect1_dropShadow_246_1645"/>
<feBlend mode="normal" in="SourceGraphic" in2="effect1_dropShadow_246_1645" result="shape"/>
</filter>
<filter id="filter3_d_246_1645" x="80.1669" y="89.2988" width="29.1724" height="13.0711" filterUnits="userSpaceOnUse" color-interpolation-filters="sRGB">
<feFlood flood-opacity="0" result="BackgroundImageFix"/>
<feColorMatrix in="SourceAlpha" type="matrix" values="0 0 0 0 0 0 0 0 0 0 0 0 0 0 0 0 0 0 127 0" result="hardAlpha"/>
<feOffset dx="0.8" dy="0.8"/>
<feComposite in2="hardAlpha" operator="out"/>
<feColorMatrix type="matrix" values="0 0 0 0 0 0 0 0 0 0 0 0 0 0 0 0 0 0 0.2 0"/>
<feBlend mode="normal" in2="BackgroundImageFix" result="effect1_dropShadow_246_1645"/>
<feBlend mode="normal" in="SourceGraphic" in2="effect1_dropShadow_246_1645" result="shape"/>
</filter>
<filter id="filter4_d_246_1645" x="80.5963" y="101.925" width="19.7194" height="5.89729" filterUnits="userSpaceOnUse" color-interpolation-filters="sRGB">
<feFlood flood-opacity="0" result="BackgroundImageFix"/>
<feColorMatrix in="SourceAlpha" type="matrix" values="0 0 0 0 0 0 0 0 0 0 0 0 0 0 0 0 0 0 127 0" result="hardAlpha"/>
<feOffset dx="0.8" dy="0.8"/>
<feComposite in2="hardAlpha" operator="out"/>
<feColorMatrix type="matrix" values="0 0 0 0 0 0 0 0 0 0 0 0 0 0 0 0 0 0 0.2 0"/>
<feBlend mode="normal" in2="BackgroundImageFix" result="effect1_dropShadow_246_1645"/>
<feBlend mode="normal" in="SourceGraphic" in2="effect1_dropShadow_246_1645" result="shape"/>
</filter>
<clipPath id="clip0_246_1645">
<rect width="77" height="39" fill="white" transform="translate(52 71)"/>
</clipPath>
</defs>
</svg>
