<svg width="180" height="180" viewBox="0 0 180 180" fill="none" xmlns="http://www.w3.org/2000/svg">
<g filter="url(#filter0_d_246_1638)">
<path d="M82.4324 151.412L29.1135 97.8686C24.9622 93.6998 24.9622 86.8386 29.1135 82.6698L82.4324 29.1266C86.5838 24.9578 93.4162 24.9578 97.5676 29.1266L150.886 82.6698C155.038 86.8386 155.038 93.6998 150.886 97.8686L97.5676 151.412C95.6154 153.372 92.5845 153.985 89.7961 154C87.203 154.014 84.2216 153.208 82.4324 151.412Z" fill="#4CAF50"/>
</g>
<g filter="url(#filter1_d_246_1638)">
<path d="M60.6666 111.333V100.667C60.6666 99.1555 61.1888 97.8888 62.2333 96.8666C63.2777 95.8444 64.5333 95.3333 66 95.3333H74.7333C75.6222 95.3333 76.4666 95.5555 77.2666 96C78.0666 96.4444 78.7111 97.0444 79.2 97.8C80.4888 99.5333 82.0777 100.889 83.9666 101.867C85.8555 102.844 87.8666 103.333 90 103.333C92.1777 103.333 94.2111 102.844 96.1 101.867C97.9889 100.889 99.5555 99.5333 100.8 97.8C101.378 97.0444 102.056 96.4444 102.833 96C103.611 95.5555 104.422 95.3333 105.267 95.3333H114C115.511 95.3333 116.778 95.8444 117.8 96.8666C118.822 97.8888 119.333 99.1555 119.333 100.667V111.333H100.667V105.267C99.1111 106.378 97.4333 107.222 95.6333 107.8C93.8333 108.378 91.9555 108.667 90 108.667C88.0888 108.667 86.2222 108.367 84.4 107.767C82.5777 107.167 80.8888 106.311 79.3333 105.2V111.333H60.6666ZM90 100.667C88.3111 100.667 86.7111 100.278 85.2 99.5C83.6888 98.7222 82.4222 97.6444 81.4 96.2666C80.6444 95.1555 79.7 94.2777 78.5666 93.6333C77.4333 92.9888 76.2 92.6666 74.8666 92.6666C75.8444 91.0222 77.9111 89.7222 81.0666 88.7666C84.2222 87.8111 87.2 87.3333 90 87.3333C92.8 87.3333 95.7777 87.8111 98.9333 88.7666C102.089 89.7222 104.156 91.0222 105.133 92.6666C103.844 92.6666 102.622 92.9888 101.467 93.6333C100.311 94.2777 99.3555 95.1555 98.6 96.2666C97.6222 97.6888 96.3777 98.7777 94.8666 99.5333C93.3555 100.289 91.7333 100.667 90 100.667ZM68.6666 92.6666C66.4444 92.6666 64.5555 91.8888 63 90.3333C61.4444 88.7777 60.6666 86.8888 60.6666 84.6666C60.6666 82.4 61.4444 80.5 63 78.9666C64.5555 77.4333 66.4444 76.6666 68.6666 76.6666C70.9333 76.6666 72.8333 77.4333 74.3666 78.9666C75.9 80.5 76.6666 82.4 76.6666 84.6666C76.6666 86.8888 75.9 88.7777 74.3666 90.3333C72.8333 91.8888 70.9333 92.6666 68.6666 92.6666ZM111.333 92.6666C109.111 92.6666 107.222 91.8888 105.667 90.3333C104.111 88.7777 103.333 86.8888 103.333 84.6666C103.333 82.4 104.111 80.5 105.667 78.9666C107.222 77.4333 109.111 76.6666 111.333 76.6666C113.6 76.6666 115.5 77.4333 117.033 78.9666C118.567 80.5 119.333 82.4 119.333 84.6666C119.333 86.8888 118.567 88.7777 117.033 90.3333C115.5 91.8888 113.6 92.6666 111.333 92.6666ZM90 84.6666C87.7777 84.6666 85.8888 83.8888 84.3333 82.3333C82.7777 80.7777 82 78.8888 82 76.6666C82 74.4 82.7777 72.5 84.3333 70.9666C85.8888 69.4333 87.7777 68.6666 90 68.6666C92.2666 68.6666 94.1666 69.4333 95.7 70.9666C97.2333 72.5 98 74.4 98 76.6666C98 78.8888 97.2333 80.7777 95.7 82.3333C94.1666 83.8888 92.2666 84.6666 90 84.6666Z" fill="white"/>
</g>
<defs>
<filter id="filter0_d_246_1638" x="26" y="26" width="130" height="130" filterUnits="userSpaceOnUse" color-interpolation-filters="sRGB">
<feFlood flood-opacity="0" result="BackgroundImageFix"/>
<feColorMatrix in="SourceAlpha" type="matrix" values="0 0 0 0 0 0 0 0 0 0 0 0 0 0 0 0 0 0 127 0" result="hardAlpha"/>
<feOffset dx="2" dy="2"/>
<feComposite in2="hardAlpha" operator="out"/>
<feColorMatrix type="matrix" values="0 0 0 0 0 0 0 0 0 0.42 0 0 0 0 0.196 0 0 0 1 0"/>
<feBlend mode="normal" in2="BackgroundImageFix" result="effect1_dropShadow_246_1638"/>
<feBlend mode="normal" in="SourceGraphic" in2="effect1_dropShadow_246_1638" result="shape"/>
</filter>
<filter id="filter1_d_246_1638" x="60.6666" y="68.6666" width="60.6666" height="44.6666" filterUnits="userSpaceOnUse" color-interpolation-filters="sRGB">
<feFlood flood-opacity="0" result="BackgroundImageFix"/>
<feColorMatrix in="SourceAlpha" type="matrix" values="0 0 0 0 0 0 0 0 0 0 0 0 0 0 0 0 0 0 127 0" result="hardAlpha"/>
<feOffset dx="2" dy="2"/>
<feComposite in2="hardAlpha" operator="out"/>
<feColorMatrix type="matrix" values="0 0 0 0 0 0 0 0 0 0 0 0 0 0 0 0 0 0 0.2 0"/>
<feBlend mode="normal" in2="BackgroundImageFix" result="effect1_dropShadow_246_1638"/>
<feBlend mode="normal" in="SourceGraphic" in2="effect1_dropShadow_246_1638" result="shape"/>
</filter>
</defs>
</svg>
