<svg width="180" height="180" viewBox="0 0 180 180" fill="none" xmlns="http://www.w3.org/2000/svg">
<g filter="url(#filter0_d_246_1677)">
<path d="M82.4324 151.412L29.1135 97.8686C24.9622 93.6998 24.9622 86.8386 29.1135 82.6698L82.4324 29.1266C86.5838 24.9578 93.4162 24.9578 97.5676 29.1266L150.886 82.6698C155.038 86.8386 155.038 93.6998 150.886 97.8686L97.5676 151.412C95.6154 153.372 92.5845 153.985 89.7961 154C87.203 154.014 84.2216 153.208 82.4324 151.412Z" fill="#4CAF50"/>
</g>
<g filter="url(#filter1_d_246_1677)">
<path d="M68.6667 114C67.2 114 65.9445 113.478 64.9 112.433C63.8556 111.389 63.3334 110.133 63.3334 108.667V79.3334C63.3334 77.8667 63.8556 76.6112 64.9 75.5667C65.9445 74.5223 67.2 74 68.6667 74H79.3334V68.6667C79.3334 67.2 79.8556 65.9445 80.9 64.9C81.9445 63.8556 83.2 63.3334 84.6667 63.3334H95.3334C96.8 63.3334 98.0556 63.8556 99.1 64.9C100.144 65.9445 100.667 67.2 100.667 68.6667V74H111.333C112.8 74 114.056 74.5223 115.1 75.5667C116.144 76.6112 116.667 77.8667 116.667 79.3334V91.7944C116.161 91.0611 111.316 91.3264 111.316 91.3264L111.333 79.3334H68.6667V108.667H87.5334C87.3474 110.956 87.7453 112.433 89.3986 114H68.6667ZM84.6667 74H95.3334V68.6667H84.6667V74Z" fill="white"/>
<path fill-rule="evenodd" clip-rule="evenodd" d="M93.898 114C92.6457 114 91.5737 113.555 90.6819 112.664C89.7901 111.774 89.3442 110.703 89.3442 109.453V95.8103C89.3442 95.3556 89.4391 94.9198 89.6289 94.5029C89.8186 94.0861 90.0653 93.7261 90.3688 93.4229L101.639 82.168L103.347 83.8733C103.575 84.1007 103.764 84.3944 103.916 84.7544C104.068 85.1144 104.144 85.4649 104.144 85.806V86.2607L102.55 93.5366H114.39C115.035 93.5366 115.576 93.7545 116.012 94.1903C116.449 94.6261 116.667 95.1661 116.667 95.8103V98.6525C116.667 98.8798 116.648 99.0977 116.61 99.3062C116.572 99.5146 116.515 99.7135 116.439 99.903L111.316 111.954C111.05 112.598 110.624 113.1 110.035 113.46C109.447 113.82 108.812 114 108.128 114H93.898ZM112.113 98.4251L107.445 109.453H93.898V96.2651L98.3379 91.945L96.9718 98.084H112.113V98.4251Z" fill="white"/>
</g>
<defs>
<filter id="filter0_d_246_1677" x="26" y="26" width="130" height="130" filterUnits="userSpaceOnUse" color-interpolation-filters="sRGB">
<feFlood flood-opacity="0" result="BackgroundImageFix"/>
<feColorMatrix in="SourceAlpha" type="matrix" values="0 0 0 0 0 0 0 0 0 0 0 0 0 0 0 0 0 0 127 0" result="hardAlpha"/>
<feOffset dx="2" dy="2"/>
<feComposite in2="hardAlpha" operator="out"/>
<feColorMatrix type="matrix" values="0 0 0 0 0 0 0 0 0 0.42 0 0 0 0 0.196 0 0 0 1 0"/>
<feBlend mode="normal" in2="BackgroundImageFix" result="effect1_dropShadow_246_1677"/>
<feBlend mode="normal" in="SourceGraphic" in2="effect1_dropShadow_246_1677" result="shape"/>
</filter>
<filter id="filter1_d_246_1677" x="63.3334" y="63.3334" width="55.3334" height="52.6666" filterUnits="userSpaceOnUse" color-interpolation-filters="sRGB">
<feFlood flood-opacity="0" result="BackgroundImageFix"/>
<feColorMatrix in="SourceAlpha" type="matrix" values="0 0 0 0 0 0 0 0 0 0 0 0 0 0 0 0 0 0 127 0" result="hardAlpha"/>
<feOffset dx="2" dy="2"/>
<feComposite in2="hardAlpha" operator="out"/>
<feColorMatrix type="matrix" values="0 0 0 0 0 0 0 0 0 0 0 0 0 0 0 0 0 0 0.2 0"/>
<feBlend mode="normal" in2="BackgroundImageFix" result="effect1_dropShadow_246_1677"/>
<feBlend mode="normal" in="SourceGraphic" in2="effect1_dropShadow_246_1677" result="shape"/>
</filter>
</defs>
</svg>
