<svg width="90" height="20" viewBox="0 0 90 20" fill="none" xmlns="http://www.w3.org/2000/svg">
  <g clip-path="url(#clip0_1140_1512)">
    <g clip-path="url(#clip1_1140_1512)">
      <path
        d="M27.9727 3.12324C27.6435 1.89323 26.6768 0.926623 25.4468 0.597366C23.2197 1.78814e-07 14.285 0 14.285 0C14.285 0 5.35042 1.78814e-07 3.12323 0.597366C1.89323 0.926623 0.926623 1.89323 0.597366 3.12324C1.78814e-07 5.35042 0 10 0 10C0 10 1.78814e-07 14.6496 0.597366 16.8768C0.926623 18.1068 1.89323 19.0734 3.12323 19.4026C5.35042 20 14.285 20 14.285 20C14.285 20 23.2197 20 25.4468 19.4026C26.6768 19.0734 27.6435 18.1068 27.9727 16.8768C28.5701 14.6496 28.5701 10 28.5701 10C28.5701 10 28.5677 5.35042 27.9727 3.12324Z"
        fill="#FF0000" />
      <path d="M11.4258 14.2854L18.8482 10.0004L11.4258 5.71533V14.2854Z" fill="white" />
      <path
        d="M34.6024 13.0036L31.3945 1.41846H34.1932L35.3174 6.6701C35.6043 7.96361 35.8136 9.06662 35.95 9.97913H36.0323C36.1264 9.32532 36.3381 8.22937 36.665 6.68892L37.8291 1.41846H40.6278L37.3799 13.0036V18.561H34.6001V13.0036H34.6024Z"
        fill="white" />
      <path
        d="M41.4701 18.1937C40.9057 17.8127 40.5035 17.22 40.2636 16.4157C40.0261 15.6114 39.9062 14.5437 39.9062 13.2078V11.3898C39.9062 10.0422 40.0426 8.95805 40.3154 8.14196C40.5882 7.32588 41.0139 6.72851 41.5924 6.35457C42.171 5.98063 42.9306 5.79248 43.8714 5.79248C44.798 5.79248 45.5388 5.98298 46.0985 6.36398C46.6559 6.74497 47.0651 7.34234 47.3238 8.15137C47.5825 8.96275 47.7119 10.0422 47.7119 11.3898V13.2078C47.7119 14.5437 47.585 15.6161 47.3334 16.4251C47.0817 17.2365 46.6724 17.8292 46.1079 18.2031C45.5435 18.5771 44.7768 18.7652 43.8102 18.7652C42.813 18.7675 42.0346 18.5747 41.4701 18.1937ZM44.6357 16.2323C44.7909 15.8231 44.8709 15.1575 44.8709 14.2309V10.3292C44.8709 9.43077 44.7933 8.77225 44.6357 8.35833C44.4781 7.94206 44.203 7.7351 43.8078 7.7351C43.4269 7.7351 43.1565 7.94206 43.0013 8.35833C42.8437 8.77461 42.766 9.43077 42.766 10.3292V14.2309C42.766 15.1575 42.8413 15.8254 42.9919 16.2323C43.1424 16.6415 43.4127 16.8461 43.8078 16.8461C44.203 16.8461 44.4781 16.6415 44.6357 16.2323Z"
        fill="white" />
      <path
        d="M56.8149 18.5634H54.6089L54.3643 17.03H54.3032C53.7034 18.1871 52.805 18.7656 51.6056 18.7656C50.7754 18.7656 50.1616 18.4928 49.7665 17.9496C49.3714 17.4039 49.1738 16.5526 49.1738 15.3955V6.03751H51.9937V15.2308C51.9937 15.7906 52.0548 16.188 52.1771 16.4256C52.2994 16.6631 52.504 16.783 52.7909 16.783C53.0355 16.783 53.2707 16.7078 53.4965 16.5573C53.7223 16.4067 53.8869 16.2162 53.9974 15.9858V6.03516H56.8149V18.5634Z"
        fill="white" />
      <path d="M64.4752 3.68758H61.6765V18.5629H58.9178V3.68758H56.1191V1.42041H64.4752V3.68758Z" fill="white" />
      <path
        d="M71.2759 18.5634H69.0699L68.8253 17.03H68.7642C68.1645 18.1871 67.2661 18.7656 66.0666 18.7656C65.2364 18.7656 64.6226 18.4928 64.2275 17.9496C63.8324 17.4039 63.6348 16.5526 63.6348 15.3955V6.03751H66.4547V15.2308C66.4547 15.7906 66.5158 16.188 66.6381 16.4256C66.7604 16.6631 66.965 16.783 67.252 16.783C67.4965 16.783 67.7317 16.7078 67.9575 16.5573C68.1833 16.4067 68.3479 16.2162 68.4584 15.9858V6.03516H71.2759V18.5634Z"
        fill="white" />
      <path
        d="M80.6083 8.0387C80.4366 7.24849 80.1614 6.67699 79.7805 6.32186C79.3995 5.96674 78.875 5.79035 78.2071 5.79035C77.6897 5.79035 77.2052 5.93616 76.756 6.23014C76.3068 6.52412 75.9587 6.90747 75.7141 7.38489H75.693V0.785645H72.9766V18.5608H75.3049L75.5918 17.3755H75.653C75.8717 17.7988 76.1986 18.1304 76.6337 18.3774C77.0688 18.622 77.5533 18.7443 78.0848 18.7443C79.0373 18.7443 79.7405 18.3045 80.1897 17.4272C80.6389 16.5476 80.8646 15.1765 80.8646 13.3092V11.3266C80.8646 9.92722 80.7776 8.82892 80.6083 8.0387ZM78.0236 13.1492C78.0236 14.0617 77.986 14.7767 77.9107 15.2941C77.8355 15.8115 77.7108 16.1808 77.5321 16.3971C77.3557 16.6158 77.1158 16.724 76.8171 16.724C76.5843 16.724 76.3703 16.6699 76.1727 16.5594C75.9752 16.4512 75.8153 16.2866 75.693 16.0702V8.96062C75.787 8.6196 75.9517 8.34209 76.1845 8.12337C76.415 7.90465 76.669 7.79646 76.9394 7.79646C77.2264 7.79646 77.4474 7.90935 77.6027 8.13278C77.7602 8.35855 77.8684 8.73485 77.9296 9.26636C77.9907 9.79787 78.0213 10.5528 78.0213 11.5335V13.1492H78.0236Z"
        fill="white" />
      <path
        d="M84.8657 13.8712C84.8657 14.6755 84.8892 15.2776 84.9363 15.6798C84.9833 16.0819 85.0821 16.3736 85.2326 16.5594C85.3831 16.7428 85.6136 16.8345 85.9264 16.8345C86.3474 16.8345 86.639 16.6699 86.7942 16.343C86.9518 16.0161 87.0365 15.4705 87.0506 14.7085L89.4824 14.8519C89.4965 14.9601 89.5035 15.1106 89.5035 15.3011C89.5035 16.4582 89.186 17.3237 88.5534 17.8952C87.9208 18.4667 87.0247 18.7536 85.8676 18.7536C84.4777 18.7536 83.504 18.3185 82.9466 17.446C82.3869 16.5735 82.1094 15.2259 82.1094 13.4008V11.2136C82.1094 9.33452 82.3987 7.96105 82.9772 7.09558C83.5558 6.2301 84.5459 5.79736 85.9499 5.79736C86.9165 5.79736 87.6597 5.97375 88.1771 6.32888C88.6945 6.684 89.059 7.23433 89.2707 7.98457C89.4824 8.7348 89.5882 9.76961 89.5882 11.0913V13.2362H84.8657V13.8712ZM85.2232 7.96811C85.0797 8.14449 84.9857 8.43377 84.9363 8.83593C84.8892 9.2381 84.8657 9.84722 84.8657 10.6657V11.5641H86.9283V10.6657C86.9283 9.86133 86.9001 9.25221 86.846 8.83593C86.7919 8.41966 86.6931 8.12803 86.5496 7.95635C86.4062 7.78702 86.1851 7.7 85.8864 7.7C85.5854 7.70235 85.3643 7.79172 85.2232 7.96811Z"
        fill="white" />
    </g>
  </g>
  <defs>
    <clipPath id="clip0_1140_1512">
      <rect width="90" height="20" fill="white" />
    </clipPath>
    <clipPath id="clip1_1140_1512">
      <rect width="90" height="20" fill="white" />
    </clipPath>
  </defs>
</svg>